<svg width="1228" height="397" xmlns="http://www.w3.org/2000/svg" xmlns:xlink="http://www.w3.org/1999/xlink" overflow="hidden"><defs><clipPath id="clip0"><rect x="0" y="0" width="1228" height="397"/></clipPath><linearGradient x1="990.5" y1="229.659" x2="1053.5" y2="229.659" gradientUnits="userSpaceOnUse" spreadMethod="reflect" id="fill1"><stop offset="0" stop-color="#93D889"/><stop offset="0.5" stop-color="#8EB0BB"/><stop offset="1" stop-color="#888AE8"/></linearGradient><linearGradient x1="36.5" y1="204.641" x2="102.5" y2="204.641" gradientUnits="userSpaceOnUse" spreadMethod="reflect" id="fill2"><stop offset="0" stop-color="#93DC85"/><stop offset="0.5" stop-color="#8EB1B9"/><stop offset="1" stop-color="#8887EB"/></linearGradient><linearGradient x1="160.5" y1="220.652" x2="226.5" y2="220.652" gradientUnits="userSpaceOnUse" spreadMethod="reflect" id="fill3"><stop offset="0" stop-color="#E2DC36"/><stop offset="0.5" stop-color="#EAAC5B"/><stop offset="1" stop-color="#F37584"/></linearGradient><linearGradient x1="258.5" y1="219.652" x2="324.5" y2="219.652" gradientUnits="userSpaceOnUse" spreadMethod="reflect" id="fill4"><stop offset="0" stop-color="#93DC85"/><stop offset="0.5" stop-color="#8EB1B9"/><stop offset="1" stop-color="#8887EB"/></linearGradient><linearGradient x1="556.5" y1="219.652" x2="622.5" y2="219.652" gradientUnits="userSpaceOnUse" spreadMethod="reflect" id="fill5"><stop offset="0" stop-color="#93DC85"/><stop offset="0.5" stop-color="#8EB1B9"/><stop offset="1" stop-color="#8887EB"/></linearGradient><linearGradient x1="525.5" y1="336.733" x2="591.5" y2="336.733" gradientUnits="userSpaceOnUse" spreadMethod="reflect" id="fill6"><stop offset="0" stop-color="#93DC85"/><stop offset="0.5" stop-color="#8EB1B9"/><stop offset="1" stop-color="#8887EB"/></linearGradient><linearGradient x1="36.5" y1="203.641" x2="102.5" y2="203.641" gradientUnits="userSpaceOnUse" spreadMethod="reflect" id="fill7"><stop offset="0" stop-color="#93DC85"/><stop offset="0.5" stop-color="#8EB1B9"/><stop offset="1" stop-color="#8887EB"/></linearGradient><linearGradient x1="557.5" y1="107.574" x2="623.5" y2="107.574" gradientUnits="userSpaceOnUse" spreadMethod="reflect" id="fill8"><stop offset="0" stop-color="#E2DC36"/><stop offset="0.5" stop-color="#EAAC5B"/><stop offset="1" stop-color="#F37584"/></linearGradient><linearGradient x1="678.5" y1="106.574" x2="744.5" y2="106.574" gradientUnits="userSpaceOnUse" spreadMethod="reflect" id="fill9"><stop offset="0" stop-color="#C4F7FC"/><stop offset="0.5" stop-color="#DBB7E8"/><stop offset="1" stop-color="#F276D2"/></linearGradient><linearGradient x1="678.5" y1="219.652" x2="744.5" y2="219.652" gradientUnits="userSpaceOnUse" spreadMethod="reflect" id="fill10"><stop offset="0" stop-color="#C4F7FC"/><stop offset="0.5" stop-color="#DBB7E8"/><stop offset="1" stop-color="#F276D2"/></linearGradient><linearGradient x1="1001.5" y1="191.132" x2="1048.5" y2="191.132" gradientUnits="userSpaceOnUse" spreadMethod="reflect" id="fill11"><stop offset="0" stop-color="#C6F1FA"/><stop offset="0.5" stop-color="#DCB4E7"/><stop offset="1" stop-color="#F07DD4"/></linearGradient><linearGradient x1="1001.5" y1="215.149" x2="1048.5" y2="215.149" gradientUnits="userSpaceOnUse" spreadMethod="reflect" id="fill12"><stop offset="0" stop-color="#C6F1FA"/><stop offset="0.5" stop-color="#DCB4E7"/><stop offset="1" stop-color="#F07DD4"/></linearGradient><linearGradient x1="1001.5" y1="240.166" x2="1048.5" y2="240.166" gradientUnits="userSpaceOnUse" spreadMethod="reflect" id="fill13"><stop offset="0" stop-color="#C6F1FA"/><stop offset="0.5" stop-color="#DCB4E7"/><stop offset="1" stop-color="#F07DD4"/></linearGradient><linearGradient x1="1002.5" y1="280.194" x2="1049.5" y2="280.194" gradientUnits="userSpaceOnUse" spreadMethod="reflect" id="fill14"><stop offset="0" stop-color="#C6F1FA"/><stop offset="0.5" stop-color="#DCB4E7"/><stop offset="1" stop-color="#F07DD4"/></linearGradient></defs><g clip-path="url(#clip0)"><rect x="0" y="0" width="1228" height="397.275" fill="#FFFFFF"/><path d="M427.5 65.9701C427.5 64.0775 429.033 62.5432 430.925 62.5432L880.076 62.5432C881.967 62.5432 883.5 64.0775 883.5 65.9701L883.5 148.178C883.5 150.07 881.967 151.605 880.076 151.605L430.925 151.605C429.033 151.605 427.5 150.07 427.5 148.178Z" stroke="#000000" stroke-width="1.33297" stroke-miterlimit="8" fill="#F2F2F2" fill-rule="evenodd"/><path d="M427.5 179.048C427.5 177.156 429.033 175.621 430.925 175.621L880.076 175.621C881.967 175.621 883.5 177.156 883.5 179.048L883.5 261.256C883.5 263.149 881.967 264.683 880.076 264.683L430.925 264.683C429.033 264.683 427.5 263.149 427.5 261.256Z" stroke="#000000" stroke-width="1.33297" stroke-miterlimit="8" fill="#F2F2F2" fill-rule="evenodd"/><path d="M427.5 292.165C427.5 290.251 429.051 288.699 430.963 288.699L880.037 288.699C881.949 288.699 883.5 290.251 883.5 292.165L883.5 375.296C883.5 377.21 881.949 378.762 880.037 378.762L430.963 378.762C429.051 378.762 427.5 377.21 427.5 375.296Z" stroke="#000000" stroke-width="1.33297" stroke-miterlimit="8" fill="#F2F2F2" fill-rule="evenodd"/><path d="M980.5 70.899C980.5 66.2842 984.239 62.5432 988.85 62.5432L1189.15 62.5432C1193.76 62.5432 1197.5 66.2842 1197.5 70.899L1197.5 369.405C1197.5 374.02 1193.76 377.761 1189.15 377.761L988.85 377.761C984.239 377.761 980.5 374.02 980.5 369.405Z" stroke="#000000" stroke-width="1.33297" stroke-miterlimit="8" fill="#F2F2F2" fill-rule="evenodd"/><path d="M990.5 135.575C990.5 133.375 992.283 131.591 994.481 131.591L1049.52 131.591C1051.72 131.591 1053.5 133.375 1053.5 135.575L1053.5 323.742C1053.5 325.943 1051.72 327.726 1049.52 327.726L994.481 327.726C992.283 327.726 990.5 325.943 990.5 323.742Z" stroke="#000000" stroke-width="1.33297" stroke-miterlimit="8" fill="url(#fill1)" fill-rule="evenodd"/><path d="M152.5 64.4229C152.5 62.8322 153.789 61.5426 155.378 61.5426L328.622 61.5426C330.211 61.5426 331.5 62.8322 331.5 64.4229L331.5 374.881C331.5 376.472 330.211 377.761 328.622 377.761L155.378 377.761C153.789 377.761 152.5 376.472 152.5 374.881Z" stroke="#000000" stroke-width="1.33297" stroke-miterlimit="8" fill="#F2F2F2" fill-rule="evenodd"/><path d="M9.49999 89.7286C9.49999 87.9785 10.9178 86.5598 12.6666 86.5598L127.333 86.5598C129.082 86.5598 130.5 87.9785 130.5 89.7286L130.5 314.551C130.5 316.301 129.082 317.72 127.333 317.72L12.6666 317.72C10.9178 317.72 9.49999 316.301 9.49999 314.551Z" stroke="#000000" stroke-width="1.33297" stroke-miterlimit="8" fill="#F2F2F2" fill-rule="evenodd"/><path d="M36.5 174.662C36.5 172.981 37.8617 171.619 39.5413 171.619L99.4587 171.619C101.138 171.619 102.5 172.981 102.5 174.662L102.5 234.621C102.5 236.302 101.138 237.664 99.4587 237.664L39.5413 237.664C37.8617 237.664 36.5 236.302 36.5 234.621Z" stroke="#000000" stroke-width="1.33297" stroke-miterlimit="8" fill="url(#fill2)" fill-rule="evenodd"/><text font-family="Calibri,Calibri_MSFontService,sans-serif" font-weight="700" font-size="14.6728" transform="matrix(1 0 0 1.00069 55.5334 227)">VLM</text><path d="M160.5 190.673C160.5 188.992 161.862 187.63 163.541 187.63L223.459 187.63C225.138 187.63 226.5 188.992 226.5 190.673L226.5 250.632C226.5 252.313 225.138 253.675 223.459 253.675L163.541 253.675C161.862 253.675 160.5 252.313 160.5 250.632Z" stroke="#000000" stroke-width="1.33297" stroke-miterlimit="8" fill="url(#fill3)" fill-rule="evenodd"/><text font-family="Calibri,Calibri_MSFontService,sans-serif" font-weight="700" font-size="12.005" transform="matrix(1 0 0 1.00069 182.809 246)">LLM</text><path d="M184.829 213.648C184.72 209.754 184.61 207.063 184.5 203.169 184.939 200.135 187.767 196.327 191.088 195.783 194.41 195.239 197.512 196.184 198.5 198.875" stroke="#000000" stroke-width="2.99919" stroke-miterlimit="8" fill="none" fill-rule="evenodd"/><path d="M183.378 212.306 193.479 218.141" stroke="#000000" stroke-width="2.00049" stroke-miterlimit="8" fill="none" fill-rule="evenodd"/><path d="M189.293 204.029C192.508 202.043 194.713 200.641 197.928 198.655 200.7 197.567 205.329 198.198 207.466 200.846 209.603 203.494 210.378 206.672 208.617 208.845" stroke="#000000" stroke-width="3.00074" stroke-miterlimit="8" fill="none" fill-rule="evenodd"/><path d="M190 203.14 190 215.149" stroke="#000000" stroke-width="1.99946" stroke-miterlimit="8" fill="none" fill-rule="evenodd"/><path d="M199.259 204.322C202.585 206.115 204.901 207.325 208.227 209.119 210.555 210.977 212.323 215.303 211.1 218.479 209.877 221.655 207.514 223.916 204.754 223.477" stroke="#000000" stroke-width="3.00074" stroke-miterlimit="8" fill="none" fill-rule="evenodd"/><path d="M200.195 204.033 190.094 209.869" stroke="#000000" stroke-width="2.00049" stroke-miterlimit="8" fill="none" fill-rule="evenodd"/><path d="M205.171 213.648C205.28 217.325 205.39 219.867 205.5 223.544 205.061 226.41 202.234 230.006 198.912 230.52 195.59 231.034 192.488 230.141 191.5 227.6" stroke="#000000" stroke-width="2.99919" stroke-miterlimit="8" fill="none" fill-rule="evenodd"/><path d="M205.1 213.621 194.999 207.785" stroke="#000000" stroke-width="2.00049" stroke-miterlimit="8" fill="none" fill-rule="evenodd"/><path d="M199.101 221.592C195.886 223.578 193.681 224.98 190.466 226.966 187.694 228.054 183.065 227.423 180.928 224.775 178.791 222.127 178.016 218.949 179.777 216.776" stroke="#000000" stroke-width="3.00074" stroke-miterlimit="8" fill="none" fill-rule="evenodd"/><path d="M199 222.154 199 211.146" stroke="#000000" stroke-width="1.99946" stroke-miterlimit="8" fill="none" fill-rule="evenodd"/><path d="M189.271 221.643C185.944 219.85 183.628 218.64 180.302 216.847 177.975 214.989 176.206 210.662 177.429 207.486 178.652 204.31 181.015 202.049 183.776 202.488" stroke="#000000" stroke-width="3.00074" stroke-miterlimit="8" fill="none" fill-rule="evenodd"/><path d="M188.334 221.932 198.435 216.096" stroke="#000000" stroke-width="2.00049" stroke-miterlimit="8" fill="none" fill-rule="evenodd"/><path d="M1070 282.195C1070 279.984 1072.01 278.192 1074.5 278.192 1076.99 278.192 1079 279.984 1079 282.195 1079 284.406 1076.99 286.198 1074.5 286.198 1072.01 286.198 1070 284.406 1070 282.195Z" stroke="#000000" stroke-width="1.99946" stroke-miterlimit="8" fill="#FFFFFF" fill-rule="evenodd"/><path d="M1071 296.205C1071 293.994 1072.79 292.202 1075 292.202 1077.21 292.202 1079 293.994 1079 296.205 1079 298.415 1077.21 300.207 1075 300.207 1072.79 300.207 1071 298.415 1071 296.205Z" stroke="#000000" stroke-width="1.99946" stroke-miterlimit="8" fill="#FFFFFF" fill-rule="evenodd"/><path d="M1088 303.21C1088 300.999 1089.79 299.207 1092 299.207 1094.21 299.207 1096 300.999 1096 303.21 1096 305.42 1094.21 307.212 1092 307.212 1089.79 307.212 1088 305.42 1088 303.21Z" stroke="#000000" stroke-width="1.99946" stroke-miterlimit="8" fill="#FFFFFF" fill-rule="evenodd"/><path d="M1088 289.2C1088 286.989 1089.79 285.197 1092 285.197 1094.21 285.197 1096 286.989 1096 289.2 1096 291.411 1094.21 293.203 1092 293.203 1089.79 293.203 1088 291.411 1088 289.2Z" stroke="#000000" stroke-width="1.99946" stroke-miterlimit="8" fill="#FFFFFF" fill-rule="evenodd"/><path d="M1087 275.19C1087 272.98 1089.01 271.187 1091.5 271.187 1093.99 271.187 1096 272.98 1096 275.19 1096 277.401 1093.99 279.193 1091.5 279.193 1089.01 279.193 1087 277.401 1087 275.19Z" stroke="#000000" stroke-width="1.99946" stroke-miterlimit="8" fill="#FFFFFF" fill-rule="evenodd"/><path d="M1104 289.2C1104 286.989 1105.79 285.197 1108 285.197 1110.21 285.197 1112 286.989 1112 289.2 1112 291.411 1110.21 293.203 1108 293.203 1105.79 293.203 1104 291.411 1104 289.2Z" stroke="#000000" stroke-width="1.99946" stroke-miterlimit="8" fill="#FFFFFF" fill-rule="evenodd"/><path d="M1079 283.196 1087 288.199" stroke="#000000" stroke-width="1.99946" stroke-miterlimit="8" fill="none" fill-rule="evenodd"/><path d="M1079 297.205 1088 302.209" stroke="#000000" stroke-width="1.99946" stroke-miterlimit="8" fill="none" fill-rule="evenodd"/><path d="M0 0 8.49792 4.79863" stroke="#000000" stroke-width="1.99947" stroke-miterlimit="8" fill="none" fill-rule="evenodd" transform="matrix(0.994514 0.1046 0.104528 -0.995202 1079.06 280.344)"/><path d="M0 0 8.49792 4.79863" stroke="#000000" stroke-width="1.99947" stroke-miterlimit="8" fill="none" fill-rule="evenodd" transform="matrix(0.994514 0.1046 0.104528 -0.995202 1078.98 294.421)"/><path d="M0 0 12.0692 14.3865" stroke="#000000" stroke-width="1.99946" stroke-miterlimit="8" fill="none" fill-rule="evenodd" transform="matrix(0.999847 -0.0174645 -0.0174524 -1.00054 1077.99 292.777)"/><path d="M1077.35 285.203 1089.17 299.808" stroke="#000000" stroke-width="1.99946" stroke-miterlimit="8" fill="none" fill-rule="evenodd"/><path d="M1096.06 278.174 1104.94 286.373" stroke="#000000" stroke-width="1.99946" stroke-miterlimit="8" fill="none" fill-rule="evenodd"/><path d="M0 0 9.43285 7.55315" stroke="#000000" stroke-width="1.99946" stroke-miterlimit="8" fill="none" fill-rule="evenodd" transform="matrix(0.997561 -0.0698045 -0.0697562 -0.998251 1095.33 300.308)"/><path d="M1096 289.2 1104 289.2" stroke="#000000" stroke-width="1.99946" stroke-miterlimit="8" fill="none" fill-rule="evenodd"/><path d="M15.5 99.4714C15.5 97.8672 16.7996 96.5667 18.4027 96.5667L120.597 96.5667C122.2 96.5667 123.5 97.8672 123.5 99.4714L123.5 115.677C123.5 117.281 122.2 118.582 120.597 118.582L18.4027 118.582C16.7996 118.582 15.5 117.281 15.5 115.677Z" stroke="#000000" stroke-width="1.33297" stroke-miterlimit="8" fill="#FDC865" fill-rule="evenodd"/><text font-family="Yu Gothic,Yu Gothic_MSFontService,sans-serif" font-weight="700" font-size="14.6728" transform="matrix(1 0 0 1.00069 54.7003 113)">入力</text><path d="M15.5 290.604C15.5 288.999 16.7996 287.699 18.4027 287.699L120.597 287.699C122.2 287.699 123.5 288.999 123.5 290.604L123.5 306.809C123.5 308.414 122.2 309.714 120.597 309.714L18.4027 309.714C16.7996 309.714 15.5 308.414 15.5 306.809Z" stroke="#000000" stroke-width="1.33297" stroke-miterlimit="8" fill="#B5EBF2" fill-rule="evenodd"/><text font-family="Yu Gothic,Yu Gothic_MSFontService,sans-serif" font-weight="700" font-size="14.6728" transform="matrix(1 0 0 1.00069 54.0338 303)">出力</text><path d="M69.9997 118.082 69.9997 167.136 68.0002 167.136 68.0002 118.082ZM74.5289 159.637 69 169.122 63.471 159.637C63.1928 159.16 63.3539 158.547 63.8308 158.269 64.3077 157.99 64.9199 158.151 65.1981 158.629L69.8635 166.632 68.1364 166.632 72.8018 158.629C73.08 158.151 73.6922 157.99 74.1691 158.269 74.646 158.547 74.8071 159.16 74.5289 159.637Z" fill="#172C51"/><path d="M69.9997 235.163 69.9997 285.218 68.0002 285.218 68.0002 235.163ZM74.5289 277.718 69 287.203 63.471 277.718C63.1928 277.241 63.3539 276.629 63.8308 276.35 64.3077 276.072 64.9199 276.233 65.1981 276.71L69.8635 284.714 68.1364 284.714 72.8018 276.71C73.08 276.233 73.6922 276.072 74.1691 276.35 74.646 276.629 74.8071 277.241 74.5289 277.718Z" fill="#172C51"/><path d="M258.5 189.672C258.5 187.992 259.862 186.629 261.541 186.629L321.459 186.629C323.138 186.629 324.5 187.992 324.5 189.672L324.5 249.631C324.5 251.312 323.138 252.675 321.459 252.675L261.541 252.675C259.862 252.675 258.5 251.312 258.5 249.631Z" stroke="#000000" stroke-width="1.33297" stroke-miterlimit="8" fill="url(#fill4)" fill-rule="evenodd"/><text font-family="Calibri,Calibri_MSFontService,sans-serif" font-weight="700" font-size="12.005" transform="matrix(1 0 0 1.00069 279.471 245)">VLM</text><path d="M270 203.641C270 201.154 272.015 199.138 274.5 199.138 276.985 199.138 279 201.154 279 203.641 279 206.128 276.985 208.144 274.5 208.144 272.015 208.144 270 206.128 270 203.641Z" stroke="#000000" stroke-width="1.99946" stroke-miterlimit="8" fill="#FFFFFF" fill-rule="evenodd"/><path d="M271 218.151C271 215.94 272.791 214.148 275 214.148 277.209 214.148 279 215.94 279 218.151 279 220.361 277.209 222.154 275 222.154 272.791 222.154 271 220.361 271 218.151Z" stroke="#000000" stroke-width="1.99946" stroke-miterlimit="8" fill="#FFFFFF" fill-rule="evenodd"/><path d="M287 224.655C287 222.168 289.015 220.152 291.5 220.152 293.985 220.152 296 222.168 296 224.655 296 227.142 293.985 229.158 291.5 229.158 289.015 229.158 287 227.142 287 224.655Z" stroke="#000000" stroke-width="1.99946" stroke-miterlimit="8" fill="#FFFFFF" fill-rule="evenodd"/><path d="M287 210.646C287 208.159 289.015 206.143 291.5 206.143 293.985 206.143 296 208.159 296 210.646 296 213.133 293.985 215.149 291.5 215.149 289.015 215.149 287 213.133 287 210.646Z" stroke="#000000" stroke-width="1.99946" stroke-miterlimit="8" fill="#FFFFFF" fill-rule="evenodd"/><path d="M287 196.636C287 194.149 289.015 192.133 291.5 192.133 293.985 192.133 296 194.149 296 196.636 296 199.123 293.985 201.139 291.5 201.139 289.015 201.139 287 199.123 287 196.636Z" stroke="#000000" stroke-width="1.99946" stroke-miterlimit="8" fill="#FFFFFF" fill-rule="evenodd"/><path d="M303 210.646C303 208.159 305.015 206.143 307.5 206.143 309.985 206.143 312 208.159 312 210.646 312 213.133 309.985 215.149 307.5 215.149 305.015 215.149 303 213.133 303 210.646Z" stroke="#000000" stroke-width="1.99946" stroke-miterlimit="8" fill="#FFFFFF" fill-rule="evenodd"/><path d="M279 205.142 287 209.145" stroke="#000000" stroke-width="1.99946" stroke-miterlimit="8" fill="none" fill-rule="evenodd"/><path d="M279 219.151 288 223.154" stroke="#000000" stroke-width="1.99946" stroke-miterlimit="8" fill="none" fill-rule="evenodd"/><path d="M0 0 8.49792 4.79863" stroke="#000000" stroke-width="1.99947" stroke-miterlimit="8" fill="none" fill-rule="evenodd" transform="matrix(0.994514 0.1046 0.104528 -0.995202 278.864 201.817)"/><path d="M0 0 8.49792 4.79863" stroke="#000000" stroke-width="1.99947" stroke-miterlimit="8" fill="none" fill-rule="evenodd" transform="matrix(0.994514 0.1046 0.104528 -0.995202 278.778 215.894)"/><path d="M0 0 12.0692 14.3865" stroke="#000000" stroke-width="1.99946" stroke-miterlimit="8" fill="none" fill-rule="evenodd" transform="matrix(0.999847 -0.0174645 -0.0174524 -1.00054 277.792 214.249)"/><path d="M277.156 206.676 288.973 221.281" stroke="#000000" stroke-width="1.99946" stroke-miterlimit="8" fill="none" fill-rule="evenodd"/><path d="M295.859 199.646 304.742 207.845" stroke="#000000" stroke-width="1.99946" stroke-miterlimit="8" fill="none" fill-rule="evenodd"/><path d="M0 0 9.43285 7.55315" stroke="#000000" stroke-width="1.99946" stroke-miterlimit="8" fill="none" fill-rule="evenodd" transform="matrix(0.997561 -0.0698045 -0.0697562 -0.998251 295.129 221.78)"/><path d="M296 211.146 304 211.146" stroke="#000000" stroke-width="1.99946" stroke-miterlimit="8" fill="none" fill-rule="evenodd"/><path d="M556.5 189.672C556.5 187.992 557.862 186.629 559.541 186.629L619.459 186.629C621.138 186.629 622.5 187.992 622.5 189.672L622.5 249.631C622.5 251.312 621.138 252.675 619.459 252.675L559.541 252.675C557.862 252.675 556.5 251.312 556.5 249.631Z" stroke="#000000" stroke-width="1.33297" stroke-miterlimit="8" fill="url(#fill5)" fill-rule="evenodd"/><text font-family="Calibri,Calibri_MSFontService,sans-serif" font-weight="700" font-size="12.005" transform="matrix(1 0 0 1.00069 578.121 245)">VLM</text><path d="M569 203.641C569 201.154 570.791 199.138 573 199.138 575.209 199.138 577 201.154 577 203.641 577 206.128 575.209 208.144 573 208.144 570.791 208.144 569 206.128 569 203.641Z" stroke="#000000" stroke-width="1.99946" stroke-miterlimit="8" fill="#FFFFFF" fill-rule="evenodd"/><path d="M569 217.65C569 215.163 571.015 213.147 573.5 213.147 575.985 213.147 578 215.163 578 217.65 578 220.137 575.985 222.154 573.5 222.154 571.015 222.154 569 220.137 569 217.65Z" stroke="#000000" stroke-width="1.99946" stroke-miterlimit="8" fill="#FFFFFF" fill-rule="evenodd"/><path d="M586 224.155C586 221.944 588.015 220.152 590.5 220.152 592.985 220.152 595 221.944 595 224.155 595 226.366 592.985 228.158 590.5 228.158 588.015 228.158 586 226.366 586 224.155Z" stroke="#000000" stroke-width="1.99946" stroke-miterlimit="8" fill="#FFFFFF" fill-rule="evenodd"/><path d="M586 210.646C586 208.159 587.791 206.143 590 206.143 592.209 206.143 594 208.159 594 210.646 594 213.133 592.209 215.149 590 215.149 587.791 215.149 586 213.133 586 210.646Z" stroke="#000000" stroke-width="1.99946" stroke-miterlimit="8" fill="#FFFFFF" fill-rule="evenodd"/><path d="M586 196.136C586 193.925 587.791 192.133 590 192.133 592.209 192.133 594 193.925 594 196.136 594 198.346 592.209 200.138 590 200.138 587.791 200.138 586 198.346 586 196.136Z" stroke="#000000" stroke-width="1.99946" stroke-miterlimit="8" fill="#FFFFFF" fill-rule="evenodd"/><path d="M602 210.145C602 207.935 604.015 206.143 606.5 206.143 608.985 206.143 611 207.935 611 210.145 611 212.356 608.985 214.148 606.5 214.148 604.015 214.148 602 212.356 602 210.145Z" stroke="#000000" stroke-width="1.99946" stroke-miterlimit="8" fill="#FFFFFF" fill-rule="evenodd"/><path d="M577 204.141 586 209.145" stroke="#000000" stroke-width="1.99946" stroke-miterlimit="8" fill="none" fill-rule="evenodd"/><path d="M578 218.151 586 223.154" stroke="#000000" stroke-width="1.99946" stroke-miterlimit="8" fill="none" fill-rule="evenodd"/><path d="M0 0 8.49792 4.79863" stroke="#000000" stroke-width="1.99947" stroke-miterlimit="8" fill="none" fill-rule="evenodd" transform="matrix(0.994514 0.1046 0.104528 -0.995202 577.514 201.507)"/><path d="M0 0 8.49792 4.79863" stroke="#000000" stroke-width="1.99947" stroke-miterlimit="8" fill="none" fill-rule="evenodd" transform="matrix(0.994514 0.1046 0.104528 -0.995202 577.429 215.584)"/><path d="M0 0 12.0692 14.3865" stroke="#000000" stroke-width="1.99946" stroke-miterlimit="8" fill="none" fill-rule="evenodd" transform="matrix(0.999847 -0.0174645 -0.0174524 -1.00054 576.442 213.939)"/><path d="M575.807 206.366 587.623 220.971" stroke="#000000" stroke-width="1.99946" stroke-miterlimit="8" fill="none" fill-rule="evenodd"/><path d="M594.509 199.337 603.392 207.535" stroke="#000000" stroke-width="1.99946" stroke-miterlimit="8" fill="none" fill-rule="evenodd"/><path d="M0 0 9.43285 7.55315" stroke="#000000" stroke-width="1.99946" stroke-miterlimit="8" fill="none" fill-rule="evenodd" transform="matrix(0.997561 -0.0698045 -0.0697562 -0.998251 593.78 221.471)"/><path d="M595 210.145 602 210.145" stroke="#000000" stroke-width="1.99946" stroke-miterlimit="8" fill="none" fill-rule="evenodd"/><path d="M525.5 306.753C525.5 305.072 526.862 303.71 528.541 303.71L588.459 303.71C590.138 303.71 591.5 305.072 591.5 306.753L591.5 366.712C591.5 368.393 590.138 369.756 588.459 369.756L528.541 369.756C526.862 369.756 525.5 368.393 525.5 366.712Z" stroke="#000000" stroke-width="1.33297" stroke-miterlimit="8" fill="url(#fill6)" fill-rule="evenodd"/><text font-family="Calibri,Calibri_MSFontService,sans-serif" font-weight="700" font-size="12.005" transform="matrix(1 0 0 1.00069 546.729 362)">VLM</text><path d="M538 320.722C538 318.235 539.791 316.219 542 316.219 544.209 316.219 546 318.235 546 320.722 546 323.209 544.209 325.225 542 325.225 539.791 325.225 538 323.209 538 320.722Z" stroke="#000000" stroke-width="1.99946" stroke-miterlimit="8" fill="#FFFFFF" fill-rule="evenodd"/><path d="M538 334.731C538 332.244 539.791 330.228 542 330.228 544.209 330.228 546 332.244 546 334.731 546 337.218 544.209 339.234 542 339.234 539.791 339.234 538 337.218 538 334.731Z" stroke="#000000" stroke-width="1.99946" stroke-miterlimit="8" fill="#FFFFFF" fill-rule="evenodd"/><path d="M555 341.736C555 339.249 556.791 337.233 559 337.233 561.209 337.233 563 339.249 563 341.736 563 344.223 561.209 346.239 559 346.239 556.791 346.239 555 344.223 555 341.736Z" stroke="#000000" stroke-width="1.99946" stroke-miterlimit="8" fill="#FFFFFF" fill-rule="evenodd"/><path d="M555 327.726C555 325.239 556.791 323.223 559 323.223 561.209 323.223 563 325.239 563 327.726 563 330.213 561.209 332.23 559 332.23 556.791 332.23 555 330.213 555 327.726Z" stroke="#000000" stroke-width="1.99946" stroke-miterlimit="8" fill="#FFFFFF" fill-rule="evenodd"/><path d="M555 313.717C555 311.23 556.791 309.214 559 309.214 561.209 309.214 563 311.23 563 313.717 563 316.204 561.209 318.22 559 318.22 556.791 318.22 555 316.204 555 313.717Z" stroke="#000000" stroke-width="1.99946" stroke-miterlimit="8" fill="#FFFFFF" fill-rule="evenodd"/><path d="M571 327.726C571 325.239 572.791 323.223 575 323.223 577.209 323.223 579 325.239 579 327.726 579 330.213 577.209 332.23 575 332.23 572.791 332.23 571 330.213 571 327.726Z" stroke="#000000" stroke-width="1.99946" stroke-miterlimit="8" fill="#FFFFFF" fill-rule="evenodd"/><path d="M546 322.223 555 326.225" stroke="#000000" stroke-width="1.99946" stroke-miterlimit="8" fill="none" fill-rule="evenodd"/><path d="M546 335.232 555 340.235" stroke="#000000" stroke-width="1.99946" stroke-miterlimit="8" fill="none" fill-rule="evenodd"/><path d="M0 0 8.49792 4.79863" stroke="#000000" stroke-width="1.99947" stroke-miterlimit="8" fill="none" fill-rule="evenodd" transform="matrix(0.994514 0.1046 0.104528 -0.995202 546.122 318.853)"/><path d="M0 0 8.49792 4.79863" stroke="#000000" stroke-width="1.99947" stroke-miterlimit="8" fill="none" fill-rule="evenodd" transform="matrix(0.994514 0.1046 0.104528 -0.995202 546.037 332.93)"/><path d="M0 0 12.0692 14.3865" stroke="#000000" stroke-width="1.99946" stroke-miterlimit="8" fill="none" fill-rule="evenodd" transform="matrix(0.999847 -0.0174645 -0.0174524 -1.00054 545.05 331.286)"/><path d="M544.415 323.712 556.231 338.317" stroke="#000000" stroke-width="1.99946" stroke-miterlimit="8" fill="none" fill-rule="evenodd"/><path d="M563.117 316.683 572 324.881" stroke="#000000" stroke-width="1.99946" stroke-miterlimit="8" fill="none" fill-rule="evenodd"/><path d="M0 0 9.43285 7.55315" stroke="#000000" stroke-width="1.99946" stroke-miterlimit="8" fill="none" fill-rule="evenodd" transform="matrix(0.997561 -0.0698045 -0.0697562 -0.998251 562.388 338.817)"/><path d="M563 327.226 571 327.226" stroke="#000000" stroke-width="1.99946" stroke-miterlimit="8" fill="none" fill-rule="evenodd"/><path d="M190.5 81.4589C190.5 79.8547 191.8 78.5542 193.403 78.5542L295.597 78.5542C297.2 78.5542 298.5 79.8547 298.5 81.4589L298.5 97.6648C298.5 99.269 297.2 100.569 295.597 100.569L193.403 100.569C191.8 100.569 190.5 99.269 190.5 97.6648Z" stroke="#000000" stroke-width="1.33297" stroke-miterlimit="8" fill="#FDC865" fill-rule="evenodd"/><text font-family="Yu Gothic,Yu Gothic_MSFontService,sans-serif" font-weight="700" font-size="14.6728" transform="matrix(1 0 0 1.00069 228.966 94)">入力</text><path d="M36.5 173.661C36.5 171.98 37.8617 170.618 39.5413 170.618L99.4587 170.618C101.138 170.618 102.5 171.98 102.5 173.661L102.5 233.62C102.5 235.301 101.138 236.664 99.4587 236.664L39.5413 236.664C37.8617 236.664 36.5 235.301 36.5 233.62Z" stroke="#000000" stroke-width="1.33297" stroke-miterlimit="8" fill="url(#fill7)" fill-rule="evenodd"/><text font-family="Calibri,Calibri_MSFontService,sans-serif" font-weight="700" font-size="12.005" transform="matrix(1 0 0 1.00069 58.0327 228)">VLM</text><path d="M49 187.129C49 184.919 50.7909 183.127 53 183.127 55.2091 183.127 57 184.919 57 187.129 57 189.34 55.2091 191.132 53 191.132 50.7909 191.132 49 189.34 49 187.129Z" stroke="#000000" stroke-width="1.99946" stroke-miterlimit="8" fill="#FFFFFF" fill-rule="evenodd"/><path d="M49 201.139C49 198.928 51.0147 197.136 53.5 197.136 55.9853 197.136 58 198.928 58 201.139 58 203.35 55.9853 205.142 53.5 205.142 51.0147 205.142 49 203.35 49 201.139Z" stroke="#000000" stroke-width="1.99946" stroke-miterlimit="8" fill="#FFFFFF" fill-rule="evenodd"/><path d="M66 207.643C66 205.156 67.7909 203.14 70 203.14 72.2091 203.14 74 205.156 74 207.643 74 210.13 72.2091 212.147 70 212.147 67.7909 212.147 66 210.13 66 207.643Z" stroke="#000000" stroke-width="1.99946" stroke-miterlimit="8" fill="#FFFFFF" fill-rule="evenodd"/><path d="M66 194.134C66 191.923 67.7909 190.131 70 190.131 72.2091 190.131 74 191.923 74 194.134 74 196.345 72.2091 198.137 70 198.137 67.7909 198.137 66 196.345 66 194.134Z" stroke="#000000" stroke-width="1.99946" stroke-miterlimit="8" fill="#FFFFFF" fill-rule="evenodd"/><path d="M66 179.624C66 177.137 67.7909 175.121 70 175.121 72.2091 175.121 74 177.137 74 179.624 74 182.111 72.2091 184.127 70 184.127 67.7909 184.127 66 182.111 66 179.624Z" stroke="#000000" stroke-width="1.99946" stroke-miterlimit="8" fill="#FFFFFF" fill-rule="evenodd"/><path d="M82 193.634C82 191.147 84.0147 189.131 86.5 189.131 88.9853 189.131 91 191.147 91 193.634 91 196.121 88.9853 198.137 86.5 198.137 84.0147 198.137 82 196.121 82 193.634Z" stroke="#000000" stroke-width="1.99946" stroke-miterlimit="8" fill="#FFFFFF" fill-rule="evenodd"/><path d="M57 188.13 66 193.133" stroke="#000000" stroke-width="1.99946" stroke-miterlimit="8" fill="none" fill-rule="evenodd"/><path d="M58 202.14 66 207.143" stroke="#000000" stroke-width="1.99946" stroke-miterlimit="8" fill="none" fill-rule="evenodd"/><path d="M0 0 8.49792 4.79863" stroke="#000000" stroke-width="1.99947" stroke-miterlimit="8" fill="none" fill-rule="evenodd" transform="matrix(0.994514 0.1046 0.104528 -0.995202 57.4259 184.995)"/><path d="M0 0 8.49792 4.79863" stroke="#000000" stroke-width="1.99947" stroke-miterlimit="8" fill="none" fill-rule="evenodd" transform="matrix(0.994514 0.1046 0.104528 -0.995202 57.3403 199.072)"/><path d="M0 0 12.0692 14.3865" stroke="#000000" stroke-width="1.99946" stroke-miterlimit="8" fill="none" fill-rule="evenodd" transform="matrix(0.999847 -0.0174645 -0.0174524 -1.00054 56.3535 197.428)"/><path d="M55.7183 189.855 67.5345 204.46" stroke="#000000" stroke-width="1.99946" stroke-miterlimit="8" fill="none" fill-rule="evenodd"/><path d="M74.4205 182.825 83.3034 191.024" stroke="#000000" stroke-width="1.99946" stroke-miterlimit="8" fill="none" fill-rule="evenodd"/><path d="M0 0 9.43285 7.55315" stroke="#000000" stroke-width="1.99946" stroke-miterlimit="8" fill="none" fill-rule="evenodd" transform="matrix(0.997561 -0.0698045 -0.0697562 -0.998251 73.6913 204.959)"/><path d="M75 194.134 82 194.134" stroke="#000000" stroke-width="1.99946" stroke-miterlimit="8" fill="none" fill-rule="evenodd"/><path d="M438.5 211.549C438.5 209.945 439.8 208.644 441.403 208.644L543.597 208.644C545.2 208.644 546.5 209.945 546.5 211.549L546.5 227.755C546.5 229.359 545.2 230.659 543.597 230.659L441.403 230.659C439.8 230.659 438.5 229.359 438.5 227.755Z" stroke="#000000" stroke-width="1.33297" stroke-miterlimit="8" fill="#FDC865" fill-rule="evenodd"/><text font-family="Yu Gothic,Yu Gothic_MSFontService,sans-serif" font-weight="700" font-size="14.6728" transform="matrix(1 0 0 1.00069 477.705 225)">入力</text><path d="M438.5 99.4714C438.5 97.8672 439.8 96.5667 441.403 96.5667L543.597 96.5667C545.2 96.5667 546.5 97.8672 546.5 99.4714L546.5 115.677C546.5 117.281 545.2 118.582 543.597 118.582L441.403 118.582C439.8 118.582 438.5 117.281 438.5 115.677Z" stroke="#000000" stroke-width="1.33297" stroke-miterlimit="8" fill="#FDC865" fill-rule="evenodd"/><text font-family="Yu Gothic,Yu Gothic_MSFontService,sans-serif" font-weight="700" font-size="14.6728" transform="matrix(1 0 0 1.00069 448.469 112)">テキスト入力</text><path d="M190.5 343.64C190.5 342.036 191.8 340.735 193.403 340.735L295.597 340.735C297.2 340.735 298.5 342.036 298.5 343.64L298.5 359.846C298.5 361.45 297.2 362.751 295.597 362.751L193.403 362.751C191.8 362.751 190.5 361.45 190.5 359.846Z" stroke="#000000" stroke-width="1.33297" stroke-miterlimit="8" fill="#B5EBF2" fill-rule="evenodd"/><text font-family="Yu Gothic,Yu Gothic_MSFontService,sans-serif" font-weight="700" font-size="14.6728" transform="matrix(1 0 0 1.00069 229.5 357)">出力</text><path d="M557.5 77.5949C557.5 75.9141 558.862 74.5515 560.541 74.5515L620.459 74.5515C622.138 74.5515 623.5 75.9141 623.5 77.5949L623.5 137.554C623.5 139.235 622.138 140.597 620.459 140.597L560.541 140.597C558.862 140.597 557.5 139.235 557.5 137.554Z" stroke="#000000" stroke-width="1.33297" stroke-miterlimit="8" fill="url(#fill8)" fill-rule="evenodd"/><text font-family="Calibri,Calibri_MSFontService,sans-serif" font-weight="700" font-size="12.005" transform="matrix(1 0 0 1.00069 579.44 132)">LLM</text><path d="M580.853 100.569C580.735 96.6759 580.618 93.9846 580.5 90.0911 580.97 87.0564 584 83.2486 587.559 82.7047 591.117 82.1607 594.441 83.1055 595.5 85.7966" stroke="#000000" stroke-width="2.99919" stroke-miterlimit="8" fill="none" fill-rule="evenodd"/><path d="M580.009 98.9454 590.11 104.781" stroke="#000000" stroke-width="2.00049" stroke-miterlimit="8" fill="none" fill-rule="evenodd"/><path d="M585.924 90.6691C589.139 88.6832 591.344 87.2807 594.56 85.2948 597.331 84.207 601.96 84.8377 604.097 87.4858 606.234 90.1338 607.009 93.3119 605.249 95.4845" stroke="#000000" stroke-width="3.00074" stroke-miterlimit="8" fill="none" fill-rule="evenodd"/><path d="M586 90.0623 586 101.07" stroke="#000000" stroke-width="1.99946" stroke-miterlimit="8" fill="none" fill-rule="evenodd"/><path d="M595.89 90.9619C599.216 92.7553 601.532 93.9651 604.859 95.7586 607.186 97.6164 608.954 101.943 607.731 105.119 606.508 108.295 604.145 110.556 601.385 110.117" stroke="#000000" stroke-width="3.00074" stroke-miterlimit="8" fill="none" fill-rule="evenodd"/><path d="M596.826 90.673 586.725 96.5088" stroke="#000000" stroke-width="2.00049" stroke-miterlimit="8" fill="none" fill-rule="evenodd"/><path d="M601.171 100.569C601.28 104.247 601.39 106.788 601.5 110.466 601.061 113.332 598.234 116.928 594.912 117.442 591.59 117.956 588.488 117.063 587.5 114.522" stroke="#000000" stroke-width="2.99919" stroke-miterlimit="8" fill="none" fill-rule="evenodd"/><path d="M601.731 100.261 591.63 94.425" stroke="#000000" stroke-width="2.00049" stroke-miterlimit="8" fill="none" fill-rule="evenodd"/><path d="M595.732 108.232C592.517 110.217 590.312 111.62 587.097 113.606 584.325 114.694 579.697 114.063 577.56 111.415 575.422 108.767 574.647 105.589 576.408 103.416" stroke="#000000" stroke-width="3.00074" stroke-miterlimit="8" fill="none" fill-rule="evenodd"/><path d="M596 109.075 596 97.0671" stroke="#000000" stroke-width="1.99946" stroke-miterlimit="8" fill="none" fill-rule="evenodd"/><path d="M585.902 108.283C582.575 106.49 580.259 105.28 576.933 103.486 574.606 101.629 572.837 97.3018 574.06 94.1257 575.284 90.9497 577.646 88.6887 580.407 89.1283" stroke="#000000" stroke-width="3.00074" stroke-miterlimit="8" fill="none" fill-rule="evenodd"/><path d="M584.965 108.572 595.066 102.736" stroke="#000000" stroke-width="2.00049" stroke-miterlimit="8" fill="none" fill-rule="evenodd"/><path d="M443.5 329.63C443.5 328.026 444.8 326.726 446.403 326.726L506.597 326.726C508.2 326.726 509.5 328.026 509.5 329.63L509.5 345.836C509.5 347.441 508.2 348.741 506.597 348.741L446.403 348.741C444.8 348.741 443.5 347.441 443.5 345.836Z" stroke="#000000" stroke-width="1.33297" stroke-miterlimit="8" fill="#FDC865" fill-rule="evenodd"/><text font-family="Yu Gothic,Yu Gothic_MSFontService,sans-serif" font-weight="700" font-size="14.6728" transform="matrix(1 0 0 1.00069 461.693 343)">入力</text><path d="M244.166 100.569 244.166 147.454 194.5 147.454 195.166 146.787 195.166 185.308 193.833 185.308 193.833 146.12 243.5 146.12 242.833 146.787 242.833 100.569ZM199.741 177.641 194.5 186.632 189.259 177.641C189.073 177.323 189.181 176.915 189.499 176.729 189.817 176.543 190.225 176.651 190.41 176.969L195.076 184.972 193.924 184.972 198.59 176.969C198.775 176.651 199.183 176.543 199.501 176.729 199.819 176.915 199.927 177.323 199.741 177.641Z"/><path d="M49.6665 0 49.6665 47.3887 0 47.3887 0.666486 46.7222 0.666486 85.6804-0.666486 85.6804-0.666486 46.0557 49 46.0557 48.3335 46.7222 48.3335 0ZM5.2411 78.0184 0 87.0031-5.2411 78.0184C-5.42657 77.7004-5.31917 77.2923-5.00122 77.1068-4.68327 76.9214-4.27517 77.0288-4.0897 77.3467L0.575696 85.3445-0.575696 85.3445 4.0897 77.3467C4.27517 77.0288 4.68327 76.9214 5.00122 77.1068 5.31917 77.2923 5.42657 77.7004 5.2411 78.0184Z" transform="matrix(-1 0 0 1.00069 244.5 253.675)"/><path d="M227.5 205.976 256.18 205.976 256.18 207.31 227.5 207.31ZM248.518 201.398 257.503 206.643 248.518 211.887C248.2 212.073 247.792 211.966 247.607 211.647 247.421 211.329 247.529 210.921 247.847 210.735L255.845 206.067 255.845 207.219 247.847 202.55C247.529 202.365 247.421 201.956 247.607 201.638 247.792 201.32 248.2 201.212 248.518 201.398Z"/><path d="M0-0.666486 27.6804-0.666486 27.6804 0.666486 0 0.666486ZM20.0184-5.2411 29.0031 0 20.0184 5.2411C19.7004 5.42657 19.2923 5.31917 19.1068 5.00122 18.9214 4.68327 19.0288 4.27517 19.3467 4.0897L27.3445-0.575696 27.3445 0.575696 19.3467-4.0897C19.0288-4.27517 18.9214-4.68327 19.1068-5.00122 19.2923-5.31917 19.7004-5.42657 20.0184-5.2411Z" transform="matrix(-1 0 0 1.00069 256.5 234.662)"/><path d="M344.707 167.343 419.187 120.882 420.774 123.429 346.293 169.89ZM409.524 120.961 422.506 120.58 416.448 132.075C416.061 132.808 415.154 133.089 414.422 132.703 413.689 132.316 413.409 131.408 413.795 130.675L418.654 121.455 420.024 123.655 409.612 123.961C408.784 123.985 408.094 123.334 408.069 122.505 408.045 121.677 408.696 120.985 409.524 120.961Z" fill="#E212E5"/><path d="M-0.484585 26.5809 78.7056-0.459675 79.6747 2.3786 0.484585 29.4192ZM69.2757-2.57 82.0066-0.00224584 73.5049 9.81562C72.9628 10.4417 72.0157 10.5098 71.3896 9.96761 70.7636 9.42545 70.6955 8.4784 71.2377 7.85231L78.0565-0.0221792 78.8936 2.42947 68.6827 0.369982C67.8709 0.206235 67.3455-0.584646 67.5092-1.3965 67.673-2.20835 68.4639-2.73375 69.2757-2.57Z" fill="#E212E5" transform="matrix(1 0 0 -1.00069 337.5 331.729)"/><text fill="#E212E5" font-family="Yu Gothic,Yu Gothic_MSFontService,sans-serif" font-weight="700" font-size="14.6728" transform="matrix(0.847827 -0.531006 0.529906 0.848414 341.866 138)">外部</text><text fill="#E212E5" font-family="Yu Gothic,Yu Gothic_MSFontService,sans-serif" font-weight="700" font-size="14.6728" transform="matrix(0.847827 -0.531006 0.529906 0.848414 366.728 122)">ﾂｰﾙ</text><text fill="#E212E5" font-family="Yu Gothic,Yu Gothic_MSFontService,sans-serif" font-weight="700" font-size="14.6728" transform="matrix(0.847827 -0.531006 0.529906 0.848414 385.376 110)">で</text><text fill="#E212E5" font-family="Yu Gothic,Yu Gothic_MSFontService,sans-serif" font-weight="700" font-size="14.6728" transform="matrix(0.847827 -0.531006 0.529906 0.848414 350.874 152)">ｴｰｼﾞｪﾝﾄ</text><text fill="#E212E5" font-family="Yu Gothic,Yu Gothic_MSFontService,sans-serif" font-weight="700" font-size="14.6728" transform="matrix(0.847827 -0.531006 0.529906 0.848414 394.384 125)">化</text><text fill="#E212E5" font-family="Yu Gothic,Yu Gothic_MSFontService,sans-serif" font-weight="700" font-size="14.6728" transform="matrix(0.940824 0.339365 -0.338662 0.941474 343.885 297)">深層推論</text><path d="M760.5 81.4589C760.5 79.8547 761.8 78.5542 763.403 78.5542L865.597 78.5542C867.2 78.5542 868.5 79.8547 868.5 81.4589L868.5 97.6648C868.5 99.269 867.2 100.569 865.597 100.569L763.403 100.569C761.8 100.569 760.5 99.269 760.5 97.6648Z" stroke="#000000" stroke-width="1.33297" stroke-miterlimit="8" fill="#FDC865" fill-rule="evenodd"/><text font-family="Yu Gothic,Yu Gothic_MSFontService,sans-serif" font-weight="700" font-size="14.6728" transform="matrix(1 0 0 1.00069 785.102 94)">視覚入力</text><path d="M760.5 117.484C760.5 115.88 761.8 114.579 763.403 114.579L865.597 114.579C867.2 114.579 868.5 115.88 868.5 117.484L868.5 133.69C868.5 135.294 867.2 136.594 865.597 136.594L763.403 136.594C761.8 136.594 760.5 135.294 760.5 133.69Z" stroke="#000000" stroke-width="1.33297" stroke-miterlimit="8" fill="#B5EBF2" fill-rule="evenodd"/><text font-family="Yu Gothic,Yu Gothic_MSFontService,sans-serif" font-weight="700" font-size="14.6728" transform="matrix(1 0 0 1.00069 799.362 131)">出力</text><path d="M678.5 76.5943C678.5 74.9135 679.862 73.5509 681.541 73.5509L741.459 73.5509C743.138 73.5509 744.5 74.9135 744.5 76.5943L744.5 136.553C744.5 138.234 743.138 139.596 741.459 139.596L681.541 139.596C679.862 139.596 678.5 138.234 678.5 136.553Z" stroke="#000000" stroke-width="1.33297" stroke-miterlimit="8" fill="url(#fill9)" fill-rule="evenodd"/><text font-family="Calibri,Calibri_MSFontService,sans-serif" font-weight="700" font-size="12.005" transform="matrix(1 0 0 1.00069 700.038 132)">Tool</text><path d="M690 90.5626C690 88.0756 692.015 86.0594 694.5 86.0594 696.985 86.0594 699 88.0756 699 90.5626 699 93.0496 696.985 95.0657 694.5 95.0657 692.015 95.0657 690 93.0496 690 90.5626Z" stroke="#000000" stroke-width="1.99946" stroke-miterlimit="8" fill="#FFFFFF" fill-rule="evenodd"/><path d="M691 104.572C691 102.085 692.791 100.069 695 100.069 697.209 100.069 699 102.085 699 104.572 699 107.059 697.209 109.075 695 109.075 692.791 109.075 691 107.059 691 104.572Z" stroke="#000000" stroke-width="1.99946" stroke-miterlimit="8" fill="#FFFFFF" fill-rule="evenodd"/><path d="M708 111.577C708 109.09 709.791 107.074 712 107.074 714.209 107.074 716 109.09 716 111.577 716 114.064 714.209 116.08 712 116.08 709.791 116.08 708 114.064 708 111.577Z" stroke="#000000" stroke-width="1.99946" stroke-miterlimit="8" fill="#FFFFFF" fill-rule="evenodd"/><path d="M708 97.5674C708 95.0804 709.791 93.0643 712 93.0643 714.209 93.0643 716 95.0804 716 97.5674 716 100.054 714.209 102.071 712 102.071 709.791 102.071 708 100.054 708 97.5674Z" stroke="#000000" stroke-width="1.99946" stroke-miterlimit="8" fill="#FFFFFF" fill-rule="evenodd"/><path d="M708 83.5578C708 81.0707 709.791 79.0546 712 79.0546 714.209 79.0546 716 81.0707 716 83.5578 716 86.0448 714.209 88.0609 712 88.0609 709.791 88.0609 708 86.0448 708 83.5578Z" stroke="#000000" stroke-width="1.99946" stroke-miterlimit="8" fill="#FFFFFF" fill-rule="evenodd"/><path d="M724 97.5674C724 95.0804 725.791 93.0643 728 93.0643 730.209 93.0643 732 95.0804 732 97.5674 732 100.054 730.209 102.071 728 102.071 725.791 102.071 724 100.054 724 97.5674Z" stroke="#000000" stroke-width="1.99946" stroke-miterlimit="8" fill="#FFFFFF" fill-rule="evenodd"/><path d="M699 91.0629 708 96.0664" stroke="#000000" stroke-width="1.99946" stroke-miterlimit="8" fill="none" fill-rule="evenodd"/><path d="M699 105.073 708 110.076" stroke="#000000" stroke-width="1.99946" stroke-miterlimit="8" fill="none" fill-rule="evenodd"/><path d="M0 0 8.49792 4.79863" stroke="#000000" stroke-width="1.99947" stroke-miterlimit="8" fill="none" fill-rule="evenodd" transform="matrix(0.994514 0.1046 0.104528 -0.995202 699.098 88.6214)"/><path d="M0 0 8.49792 4.79863" stroke="#000000" stroke-width="1.99947" stroke-miterlimit="8" fill="none" fill-rule="evenodd" transform="matrix(0.994514 0.1046 0.104528 -0.995202 699.012 102.698)"/><path d="M0 0 12.0692 14.3865" stroke="#000000" stroke-width="1.99946" stroke-miterlimit="8" fill="none" fill-rule="evenodd" transform="matrix(0.999847 -0.0174645 -0.0174524 -1.00054 698.025 101.054)"/><path d="M697.39 93.4805 709.206 108.086" stroke="#000000" stroke-width="1.99946" stroke-miterlimit="8" fill="none" fill-rule="evenodd"/><path d="M716.092 86.4513 724.975 94.6497" stroke="#000000" stroke-width="1.99946" stroke-miterlimit="8" fill="none" fill-rule="evenodd"/><path d="M0 0 9.43285 7.55315" stroke="#000000" stroke-width="1.99946" stroke-miterlimit="8" fill="none" fill-rule="evenodd" transform="matrix(0.997561 -0.0698045 -0.0697562 -0.998251 715.363 108.585)"/><path d="M716 97.0671 724 97.0671" stroke="#000000" stroke-width="1.99946" stroke-miterlimit="8" fill="none" fill-rule="evenodd"/><path d="M678.5 189.672C678.5 187.992 679.862 186.629 681.541 186.629L741.459 186.629C743.138 186.629 744.5 187.992 744.5 189.672L744.5 249.631C744.5 251.312 743.138 252.675 741.459 252.675L681.541 252.675C679.862 252.675 678.5 251.312 678.5 249.631Z" stroke="#000000" stroke-width="1.33297" stroke-miterlimit="8" fill="url(#fill10)" fill-rule="evenodd"/><text font-family="Calibri,Calibri_MSFontService,sans-serif" font-weight="700" font-size="12.005" transform="matrix(1 0 0 1.00069 700.038 244)">Tool</text><path d="M690 203.14C690 200.93 692.015 199.138 694.5 199.138 696.985 199.138 699 200.93 699 203.14 699 205.351 696.985 207.143 694.5 207.143 692.015 207.143 690 205.351 690 203.14Z" stroke="#000000" stroke-width="1.99946" stroke-miterlimit="8" fill="#FFFFFF" fill-rule="evenodd"/><path d="M691 217.15C691 214.939 692.791 213.147 695 213.147 697.209 213.147 699 214.939 699 217.15 699 219.361 697.209 221.153 695 221.153 692.791 221.153 691 219.361 691 217.15Z" stroke="#000000" stroke-width="1.99946" stroke-miterlimit="8" fill="#FFFFFF" fill-rule="evenodd"/><path d="M708 224.155C708 221.944 709.791 220.152 712 220.152 714.209 220.152 716 221.944 716 224.155 716 226.366 714.209 228.158 712 228.158 709.791 228.158 708 226.366 708 224.155Z" stroke="#000000" stroke-width="1.99946" stroke-miterlimit="8" fill="#FFFFFF" fill-rule="evenodd"/><path d="M708 210.145C708 207.935 709.791 206.143 712 206.143 714.209 206.143 716 207.935 716 210.145 716 212.356 714.209 214.148 712 214.148 709.791 214.148 708 212.356 708 210.145Z" stroke="#000000" stroke-width="1.99946" stroke-miterlimit="8" fill="#FFFFFF" fill-rule="evenodd"/><path d="M708 196.136C708 193.925 709.791 192.133 712 192.133 714.209 192.133 716 193.925 716 196.136 716 198.346 714.209 200.138 712 200.138 709.791 200.138 708 198.346 708 196.136Z" stroke="#000000" stroke-width="1.99946" stroke-miterlimit="8" fill="#FFFFFF" fill-rule="evenodd"/><path d="M724 210.145C724 207.935 725.791 206.143 728 206.143 730.209 206.143 732 207.935 732 210.145 732 212.356 730.209 214.148 728 214.148 725.791 214.148 724 212.356 724 210.145Z" stroke="#000000" stroke-width="1.99946" stroke-miterlimit="8" fill="#FFFFFF" fill-rule="evenodd"/><path d="M699 204.141 708 209.145" stroke="#000000" stroke-width="1.99946" stroke-miterlimit="8" fill="none" fill-rule="evenodd"/><path d="M699 218.151 708 223.154" stroke="#000000" stroke-width="1.99946" stroke-miterlimit="8" fill="none" fill-rule="evenodd"/><path d="M0 0 8.49792 4.79863" stroke="#000000" stroke-width="1.99947" stroke-miterlimit="8" fill="none" fill-rule="evenodd" transform="matrix(0.994514 0.1046 0.104528 -0.995202 699.098 201.202)"/><path d="M0 0 8.49792 4.79863" stroke="#000000" stroke-width="1.99947" stroke-miterlimit="8" fill="none" fill-rule="evenodd" transform="matrix(0.994514 0.1046 0.104528 -0.995202 699.012 215.279)"/><path d="M0 0 12.0692 14.3865" stroke="#000000" stroke-width="1.99946" stroke-miterlimit="8" fill="none" fill-rule="evenodd" transform="matrix(0.999847 -0.0174645 -0.0174524 -1.00054 698.025 213.634)"/><path d="M697.39 206.061 709.206 220.666" stroke="#000000" stroke-width="1.99946" stroke-miterlimit="8" fill="none" fill-rule="evenodd"/><path d="M716.092 199.032 724.975 207.23" stroke="#000000" stroke-width="1.99946" stroke-miterlimit="8" fill="none" fill-rule="evenodd"/><path d="M0 0 9.43285 7.55315" stroke="#000000" stroke-width="1.99946" stroke-miterlimit="8" fill="none" fill-rule="evenodd" transform="matrix(0.997561 -0.0698045 -0.0697562 -0.998251 715.363 221.166)"/><path d="M716 210.145 724 210.145" stroke="#000000" stroke-width="1.99946" stroke-miterlimit="8" fill="none" fill-rule="evenodd"/><path d="M760.5 90.2289 745.82 90.2289 745.82 88.895 760.5 88.895ZM753.482 94.8066 744.497 89.5619 753.482 84.3172C753.8 84.1316 754.208 84.2391 754.393 84.5572 754.579 84.8754 754.471 85.2838 754.153 85.4694L746.155 90.138 746.155 88.9858 754.153 93.6544C754.471 93.84 754.579 94.2484 754.393 94.5666 754.208 94.8848 753.8 94.9922 753.482 94.8066Z" fill="#172C51"/><path d="M16.0001 0.666486 1.31965 0.666486 1.31965-0.666486 16.0001-0.666486ZM8.98165 5.2411-0.0030891 0 8.98165-5.2411C9.2996-5.42657 9.7077-5.31917 9.89317-5.00122 10.0786-4.68327 9.97124-4.27517 9.65329-4.0897L1.65546 0.575696 1.65546-0.575696 9.65329 4.0897C9.97124 4.27517 10.0786 4.68327 9.89317 5.00122 9.7077 5.31917 9.2996 5.42657 8.98165 5.2411Z" fill="#172C51" transform="matrix(-1 0 0 1.00069 760.5 125.587)"/><path d="M761.5 194.537C761.5 192.933 762.799 191.632 764.403 191.632L866.597 191.632C868.2 191.632 869.5 192.933 869.5 194.537L869.5 210.743C869.5 212.347 868.2 213.648 866.597 213.648L764.403 213.648C762.799 213.648 761.5 212.347 761.5 210.743Z" stroke="#000000" stroke-width="1.33297" stroke-miterlimit="8" fill="#FDC865" fill-rule="evenodd"/><text font-family="Yu Gothic,Yu Gothic_MSFontService,sans-serif" font-weight="700" font-size="14.6728" transform="matrix(1 0 0 1.00069 785.635 207)">視覚入力</text><path d="M760.5 230.562C760.5 228.958 761.8 227.657 763.403 227.657L865.597 227.657C867.2 227.657 868.5 228.958 868.5 230.562L868.5 246.768C868.5 248.372 867.2 249.673 865.597 249.673L763.403 249.673C761.8 249.673 760.5 248.372 760.5 246.768Z" stroke="#000000" stroke-width="1.33297" stroke-miterlimit="8" fill="#B5EBF2" fill-rule="evenodd"/><text font-family="Yu Gothic,Yu Gothic_MSFontService,sans-serif" font-weight="700" font-size="14.6728" transform="matrix(1 0 0 1.00069 799.429 243)">出力</text><path d="M761.5 203.307 746.82 203.307 746.82 201.973 761.5 201.973ZM754.482 207.885 745.497 202.64 754.482 197.395C754.8 197.21 755.208 197.317 755.393 197.635 755.579 197.954 755.471 198.362 755.153 198.548L747.155 203.216 747.155 202.064 755.153 206.733C755.471 206.918 755.579 207.327 755.393 207.645 755.208 207.963 754.8 208.07 754.482 207.885Z" fill="#172C51"/><path d="M16 0.666486 1.31965 0.666486 1.31965-0.666486 16-0.666486ZM8.98165 5.2411-0.0030891 0 8.98165-5.2411C9.2996-5.42657 9.7077-5.31917 9.89317-5.00122 10.0786-4.68327 9.97124-4.27517 9.65329-4.0897L1.65546 0.575696 1.65546-0.575696 9.65329 4.0897C9.97124 4.27517 10.0786 4.68327 9.89317 5.00122 9.7077 5.31917 9.2996 5.42657 8.98165 5.2411Z" fill="#172C51" transform="matrix(-1 0 0 1.00069 761.5 238.665)"/><path d="M611.271 369.756C609.74 369.756 608.5 368.514 608.5 366.983L608.5 307.483C608.5 305.952 609.74 304.711 611.271 304.711L626.729 304.711C628.259 304.711 629.5 305.952 629.5 307.483L629.5 366.983C629.5 368.514 628.259 369.756 626.729 369.756Z" stroke="#000000" stroke-width="1.33389" stroke-miterlimit="8" fill="#F6B7B7" fill-rule="evenodd"/><text font-family="Yu Gothic,Yu Gothic_MSFontService,sans-serif" font-weight="700" font-size="14.6728" transform="matrix(-1.83697e-16 -1.00138 0.999309 -1.83824e-16 623.521 352)">思考</text><path d="M648.403 369.756C646.799 369.756 645.5 368.455 645.5 366.851L645.5 307.615C645.5 306.011 646.799 304.711 648.403 304.711L664.597 304.711C666.2 304.711 667.5 306.011 667.5 307.615L667.5 366.851C667.5 368.455 666.2 369.756 664.597 369.756Z" stroke="#000000" stroke-width="1.33389" stroke-miterlimit="8" fill="#F6B7B7" fill-rule="evenodd"/><text font-family="Yu Gothic,Yu Gothic_MSFontService,sans-serif" font-weight="700" font-size="14.6728" transform="matrix(-1.83697e-16 -1.00138 0.999309 -1.83824e-16 661.309 352)">思考</text><path d="M729.403 369.756C727.8 369.756 726.5 368.455 726.5 366.851L726.5 307.615C726.5 306.011 727.8 304.711 729.403 304.711L745.597 304.711C747.2 304.711 748.5 306.011 748.5 307.615L748.5 366.851C748.5 368.455 747.2 369.756 745.597 369.756Z" stroke="#000000" stroke-width="1.33389" stroke-miterlimit="8" fill="#F6B7B7" fill-rule="evenodd"/><text font-family="Yu Gothic,Yu Gothic_MSFontService,sans-serif" font-weight="700" font-size="14.6728" transform="matrix(-1.83697e-16 -1.00138 0.999309 -1.83824e-16 742.354 352)">思考</text><path d="M766.403 369.755C764.8 369.755 763.5 368.455 763.5 366.851L763.5 307.615C763.5 306.011 764.8 304.711 766.403 304.711L782.597 304.711C784.201 304.711 785.5 306.011 785.5 307.615L785.5 366.851C785.5 368.455 784.201 369.755 782.597 369.755Z" stroke="#000000" stroke-width="1.33389" stroke-miterlimit="8" fill="#F6B7B7" fill-rule="evenodd"/><text font-family="Yu Gothic,Yu Gothic_MSFontService,sans-serif" font-weight="700" font-size="14.6728" transform="matrix(-1.83697e-16 -1.00138 0.999309 -1.83824e-16 779.144 352)">思考</text><path d="M800.5 329.631C800.5 328.026 801.8 326.726 803.403 326.726L861.597 326.726C863.201 326.726 864.5 328.026 864.5 329.631L864.5 345.836C864.5 347.441 863.201 348.741 861.597 348.741L803.403 348.741C801.8 348.741 800.5 347.441 800.5 345.836Z" stroke="#000000" stroke-width="1.33297" stroke-miterlimit="8" fill="#B5EBF2" fill-rule="evenodd"/><text font-family="Yu Gothic,Yu Gothic_MSFontService,sans-serif" font-weight="700" font-size="14.6728" transform="matrix(1 0 0 1.00069 817.425 343)">出力</text><path d="M16 0.666486 1.31965 0.666486 1.31965-0.666486 16-0.666486ZM8.98165 5.2411-0.0030891 0 8.98165-5.2411C9.2996-5.42657 9.7077-5.31917 9.89317-5.00122 10.0786-4.68327 9.97124-4.27517 9.65329-4.0897L1.65546 0.575696 1.65546-0.575696 9.65329 4.0897C9.97124 4.27517 10.0786 4.68327 9.89317 5.00122 9.7077 5.31917 9.2996 5.42657 8.98165 5.2411Z" fill="#172C51" transform="matrix(-1 0 0 1.00069 607.5 337.733)"/><path d="M16.0001 0.666486 1.31965 0.666486 1.31965-0.666486 16.0001-0.666486ZM8.98165 5.2411-0.0030891 0 8.98165-5.2411C9.2996-5.42657 9.7077-5.31917 9.89317-5.00122 10.0786-4.68327 9.97124-4.27517 9.65329-4.0897L1.65546 0.575696 1.65546-0.575696 9.65329 4.0897C9.97124 4.27517 10.0786 4.68327 9.89317 5.00122 9.7077 5.31917 9.2996 5.42657 8.98165 5.2411Z" fill="#172C51" transform="matrix(-1 0 0 1.00069 526.5 337.733)"/><path d="M16 0.666486 1.31965 0.666486 1.31965-0.666486 16-0.666486ZM8.98165 5.2411-0.0030891 0 8.98165-5.2411C9.2996-5.42657 9.7077-5.31917 9.89317-5.00122 10.0786-4.68327 9.97124-4.27517 9.65329-4.0897L1.65546 0.575696 1.65546-0.575696 9.65329 4.0897C9.97124 4.27517 10.0786 4.68327 9.89317 5.00122 9.7077 5.31917 9.2996 5.42657 8.98165 5.2411Z" fill="#172C51" transform="matrix(-1 0 0 1.00069 646.5 336.733)"/><path d="M16 0.666486 1.31965 0.666486 1.31965-0.666486 16-0.666486ZM8.98165 5.2411-0.0030891 0 8.98165-5.2411C9.2996-5.42657 9.7077-5.31917 9.89317-5.00122 10.0786-4.68327 9.97124-4.27517 9.65329-4.0897L1.65546 0.575696 1.65546-0.575696 9.65329 4.0897C9.97124 4.27517 10.0786 4.68327 9.89317 5.00122 9.7077 5.31917 9.2996 5.42657 8.98165 5.2411Z" fill="#172C51" transform="matrix(-1 0 0 1.00069 684.5 337.733)"/><path d="M16 0.666486 1.31965 0.666486 1.31965-0.666486 16-0.666486ZM8.98165 5.2411-0.0030891 0 8.98165-5.2411C9.2996-5.42657 9.7077-5.31917 9.89317-5.00122 10.0786-4.68327 9.97124-4.27517 9.65329-4.0897L1.65546 0.575696 1.65546-0.575696 9.65329 4.0897C9.97124 4.27517 10.0786 4.68327 9.89317 5.00122 9.7077 5.31917 9.2996 5.42657 8.98165 5.2411Z" fill="#172C51" transform="matrix(-1 0 0 1.00069 726.5 336.733)"/><path d="M16.0001 0.666486 1.31965 0.666486 1.31965-0.666486 16.0001-0.666486ZM8.98165 5.2411-0.0030891 0 8.98165-5.2411C9.2996-5.42657 9.7077-5.31917 9.89317-5.00122 10.0786-4.68327 9.97124-4.27517 9.65329-4.0897L1.65546 0.575696 1.65546-0.575696 9.65329 4.0897C9.97124 4.27517 10.0786 4.68327 9.89317 5.00122 9.7077 5.31917 9.2996 5.42657 8.98165 5.2411Z" fill="#172C51" transform="matrix(-1 0 0 1.00069 763.5 336.733)"/><path d="M16 0.666486 1.31965 0.666486 1.31965-0.666486 16-0.666486ZM8.98165 5.2411-0.0030891 0 8.98165-5.2411C9.2996-5.42657 9.7077-5.31917 9.89317-5.00122 10.0786-4.68327 9.97124-4.27517 9.65329-4.0897L1.65546 0.575696 1.65546-0.575696 9.65329 4.0897C9.97124 4.27517 10.0786 4.68327 9.89317 5.00122 9.7077 5.31917 9.2996 5.42657 8.98165 5.2411Z" fill="#172C51" transform="matrix(-1 0 0 1.00069 800.5 337.733)"/><path d="M1062.5 233.168C1062.5 231.782 1063.59 230.659 1064.93 230.659L1113.39 230.659C1113.65 235.413 1113.37 246.936 1113.39 249.673L1064.93 249.673C1063.59 249.673 1062.5 248.549 1062.5 247.164L1062.5 233.168Z" stroke="#000000" stroke-width="1.33297" stroke-miterlimit="8" fill="#F6B7B7" fill-rule="evenodd"/><text font-family="Yu Gothic,Yu Gothic_MSFontService,sans-serif" font-weight="700" font-size="12.005" transform="matrix(1 0 0 1.00069 1063.53 244)">テキスト</text><path d="M1113.67 249.673C1113.23 245.543 1113.79 238.245 1113.67 230.659L1162.07 230.659C1163.41 230.659 1164.5 231.782 1164.5 233.168L1164.5 247.164C1164.5 248.549 1163.41 249.673 1162.07 249.673L1113.67 249.673Z" stroke="#000000" stroke-width="1.33297" stroke-miterlimit="8" fill="#B7C2F6" fill-rule="evenodd"/><text font-family="Yu Gothic,Yu Gothic_MSFontService,sans-serif" font-weight="700" font-size="12.005" transform="matrix(1 0 0 1.00069 1126.51 244)">視覚</text><path d="M1062.5 208.151C1062.5 206.765 1063.59 205.642 1064.93 205.642L1113.39 205.642C1113.65 210.395 1113.37 221.919 1113.39 224.655L1064.93 224.655C1063.59 224.655 1062.5 223.532 1062.5 222.147L1062.5 208.151Z" stroke="#000000" stroke-width="1.33297" stroke-miterlimit="8" fill="#F6B7B7" fill-rule="evenodd"/><text font-family="Yu Gothic,Yu Gothic_MSFontService,sans-serif" font-weight="700" font-size="12.005" transform="matrix(1 0 0 1.00069 1063.19 219)">テキスト</text><path d="M1113.67 224.655C1113.23 220.526 1113.79 213.228 1113.67 205.642L1162.07 205.642C1163.41 205.642 1164.5 206.765 1164.5 208.151L1164.5 222.147C1164.5 223.532 1163.41 224.655 1162.07 224.655L1113.67 224.655Z" stroke="#000000" stroke-width="1.33297" stroke-miterlimit="8" fill="#B7C2F6" fill-rule="evenodd"/><text font-family="Yu Gothic,Yu Gothic_MSFontService,sans-serif" font-weight="700" font-size="12.005" transform="matrix(1 0 0 1.00069 1126.18 219)">視覚</text><path d="M1062.5 184.134C1062.5 182.749 1063.59 181.626 1064.93 181.626L1113.39 181.626C1113.65 186.379 1113.37 197.902 1113.39 200.639L1064.93 200.639C1063.59 200.639 1062.5 199.516 1062.5 198.13L1062.5 184.134Z" stroke="#000000" stroke-width="1.33297" stroke-miterlimit="8" fill="#F6B7B7" fill-rule="evenodd"/><text font-family="Yu Gothic,Yu Gothic_MSFontService,sans-serif" font-weight="700" font-size="12.005" transform="matrix(1 0 0 1.00069 1063.53 194)">テキスト</text><path d="M1113.67 200.639C1113.23 196.51 1113.79 189.212 1113.67 181.626L1162.07 181.626C1163.41 181.626 1164.5 182.749 1164.5 184.134L1164.5 198.13C1164.5 199.516 1163.41 200.639 1162.07 200.639L1113.67 200.639Z" stroke="#000000" stroke-width="1.33297" stroke-miterlimit="8" fill="#B7C2F6" fill-rule="evenodd"/><text font-family="Yu Gothic,Yu Gothic_MSFontService,sans-serif" font-weight="700" font-size="12.005" transform="matrix(1 0 0 1.00069 1126.51 194)">視覚</text><path d="M983.5 352.646C983.5 351.042 984.799 349.742 986.403 349.742L1187.6 349.742C1189.2 349.742 1190.5 351.042 1190.5 352.646L1190.5 368.852C1190.5 370.456 1189.2 371.757 1187.6 371.757L986.403 371.757C984.799 371.757 983.5 370.456 983.5 368.852Z" stroke="#000000" stroke-width="1.33297" stroke-miterlimit="8" fill="#B5EBF2" fill-rule="evenodd"/><text font-family="Yu Gothic,Yu Gothic_MSFontService,sans-serif" font-weight="700" font-size="14.6728" transform="matrix(1 0 0 1.00069 1071.81 365)">出力</text><path d="M988.5 78.457C988.5 76.8528 989.8 75.5522 991.403 75.5522L1187.6 75.5522C1189.2 75.5522 1190.5 76.8528 1190.5 78.457L1190.5 94.6627C1190.5 96.267 1189.2 97.5675 1187.6 97.5675L991.403 97.5675C989.8 97.5675 988.5 96.267 988.5 94.6627Z" stroke="#000000" stroke-width="1.33297" stroke-miterlimit="8" fill="#FDC865" fill-rule="evenodd"/><text font-family="Yu Gothic,Yu Gothic_MSFontService,sans-serif" font-weight="700" font-size="14.6728" transform="matrix(1 0 0 1.00069 1074.37 91)">入力</text><path d="M1001.5 149.506C1001.5 147.902 1002.8 146.601 1004.4 146.601L1045.6 146.601C1047.2 146.601 1048.5 147.902 1048.5 149.506L1048.5 165.712C1048.5 167.316 1047.2 168.617 1045.6 168.617L1004.4 168.617C1002.8 168.617 1001.5 167.316 1001.5 165.712Z" stroke="#000000" stroke-width="1.33297" stroke-miterlimit="8" fill="#F2EAB5" fill-rule="evenodd"/><text font-family="Yu Gothic,Yu Gothic_MSFontService,sans-serif" font-weight="700" font-size="12.005" transform="matrix(1 0 0 1.00069 1012.9 161)">ﾙｰﾀｰ</text><path d="M1001.5 184.134C1001.5 182.749 1002.62 181.626 1004.01 181.626L1045.99 181.626C1047.38 181.626 1048.5 182.749 1048.5 184.134L1048.5 198.13C1048.5 199.516 1047.38 200.639 1045.99 200.639L1004.01 200.639C1002.62 200.639 1001.5 199.516 1001.5 198.13Z" stroke="#000000" stroke-width="1.33297" stroke-miterlimit="8" fill="url(#fill11)" fill-rule="evenodd"/><text font-family="Yu Gothic,Yu Gothic_MSFontService,sans-serif" font-weight="700" font-size="12.005" transform="matrix(1 0 0 1.00069 1012.87 194)">検索</text><path d="M1001.5 208.151C1001.5 206.765 1002.62 205.642 1004.01 205.642L1045.99 205.642C1047.38 205.642 1048.5 206.765 1048.5 208.151L1048.5 222.147C1048.5 223.532 1047.38 224.655 1045.99 224.655L1004.01 224.655C1002.62 224.655 1001.5 223.532 1001.5 222.147Z" stroke="#000000" stroke-width="1.33297" stroke-miterlimit="8" fill="url(#fill12)" fill-rule="evenodd"/><text font-family="Yu Gothic,Yu Gothic_MSFontService,sans-serif" font-weight="700" font-size="12.005" transform="matrix(1 0 0 1.00069 1012.55 218)">想像</text><path d="M1001.5 233.168C1001.5 231.782 1002.62 230.659 1004.01 230.659L1045.99 230.659C1047.38 230.659 1048.5 231.782 1048.5 233.168L1048.5 247.164C1048.5 248.549 1047.38 249.672 1045.99 249.672L1004.01 249.672C1002.62 249.672 1001.5 248.549 1001.5 247.164Z" stroke="#000000" stroke-width="1.33297" stroke-miterlimit="8" fill="url(#fill13)" fill-rule="evenodd"/><text font-family="Yu Gothic,Yu Gothic_MSFontService,sans-serif" font-weight="700" font-size="12.005" transform="matrix(1 0 0 1.00069 1012.88 243)">知覚</text><path d="M1002.5 273.196C1002.5 271.81 1003.62 270.687 1005.01 270.687L1046.99 270.687C1048.38 270.687 1049.5 271.81 1049.5 273.196L1049.5 287.192C1049.5 288.577 1048.38 289.7 1046.99 289.7L1005.01 289.7C1003.62 289.7 1002.5 288.577 1002.5 287.192Z" stroke="#000000" stroke-width="1.33297" stroke-miterlimit="8" fill="url(#fill14)" fill-rule="evenodd"/><text font-family="Yu Gothic,Yu Gothic_MSFontService,sans-serif" font-weight="700" font-size="12.005" transform="matrix(1 0 0 1.00069 1013.16 283)">回答</text><path d="M1048.5 190.966 1062.25 190.966 1062.25 192.299 1048.5 192.299ZM1057.27 187.732 1063.5 191.632 1057.27 195.533C1056.96 195.728 1056.55 195.633 1056.35 195.321 1056.15 195.008 1056.25 194.597 1056.56 194.402L1061.89 191.067 1061.89 192.198 1056.56 188.863C1056.25 188.668 1056.15 188.257 1056.35 187.944 1056.55 187.632 1056.96 187.537 1057.27 187.732Z" fill="#172C51"/><path d="M1047.5 214.982 1061.25 214.982 1061.25 216.316 1047.5 216.316ZM1056.27 211.749 1062.5 215.649 1056.27 219.549C1055.96 219.745 1055.55 219.65 1055.35 219.337 1055.15 219.025 1055.25 218.613 1055.56 218.418L1060.89 215.083 1060.89 216.215 1055.56 212.88C1055.25 212.685 1055.15 212.273 1055.35 211.961 1055.55 211.648 1055.96 211.554 1056.27 211.749Z" fill="#172C51"/><path d="M1047.5 238.999 1061.25 238.999 1061.25 240.333 1047.5 240.333ZM1056.27 235.765 1062.5 239.666 1056.27 243.566C1055.96 243.761 1055.55 243.666 1055.35 243.354 1055.15 243.042 1055.25 242.63 1055.56 242.435L1060.89 239.1 1060.89 240.231 1055.56 236.896C1055.25 236.701 1055.15 236.29 1055.35 235.977 1055.55 235.665 1055.96 235.57 1056.27 235.765Z" fill="#172C51"/><path d="M986.5 280.027 994.247 280.027 994.247 281.361 986.5 281.361ZM989.268 276.794 995.504 280.694 989.268 284.594C988.956 284.79 988.545 284.695 988.35 284.382 988.155 284.07 988.25 283.658 988.562 283.463L993.894 280.128 993.894 281.26 988.562 277.925C988.25 277.73 988.155 277.318 988.35 277.006 988.545 276.693 988.956 276.598 989.268 276.794Z" fill="#172C51"/><path d="M986.5 238.999 994.247 238.999 994.247 240.333 986.5 240.333ZM989.268 235.765 995.504 239.666 989.268 243.566C988.956 243.761 988.545 243.666 988.35 243.354 988.155 243.042 988.25 242.63 988.562 242.435L993.894 239.1 993.894 240.231 988.562 236.896C988.25 236.701 988.155 236.29 988.35 235.977 988.545 235.665 988.956 235.57 989.268 235.765Z" fill="#172C51"/><path d="M986.5 214.982 994.247 214.982 994.247 216.316 986.5 216.316ZM989.268 211.749 995.504 215.649 989.268 219.549C988.956 219.745 988.545 219.65 988.35 219.337 988.155 219.025 988.25 218.613 988.562 218.418L993.894 215.083 993.894 216.215 988.562 212.88C988.25 212.685 988.155 212.273 988.35 211.961 988.545 211.648 988.956 211.554 989.268 211.749Z" fill="#172C51"/><path d="M986.5 190.966 994.247 190.966 994.247 192.299 986.5 192.299ZM989.268 187.732 995.504 191.632 989.268 195.533C988.956 195.728 988.545 195.633 988.35 195.321 988.155 195.008 988.25 194.597 988.562 194.402L993.894 191.067 993.894 192.198 988.562 188.863C988.25 188.668 988.155 188.257 988.35 187.944 988.545 187.632 988.956 187.537 989.268 187.732Z" fill="#172C51"/><path d="M995.5 158.61 986.5 158.61 986.5 279.693" stroke="#172C51" stroke-width="1.33297" stroke-miterlimit="8" fill="none" fill-rule="evenodd"/><path d="M1026 96.0664 1026 127.108 1024 127.108 1024 96.0664ZM1030.53 119.609 1025 129.094 1019.47 119.609C1019.19 119.132 1019.35 118.519 1019.83 118.241 1020.31 117.963 1020.92 118.124 1021.2 118.601L1025.86 126.604 1024.14 126.604 1028.8 118.601C1029.08 118.124 1029.69 117.963 1030.17 118.241 1030.65 118.519 1030.81 119.132 1030.53 119.609Z" fill="#172C51"/><path d="M1026 327.226 1026 345.259 1024 345.259 1024 327.226ZM1030.53 337.76 1025 347.245 1019.47 337.76C1019.19 337.283 1019.35 336.67 1019.83 336.392 1020.31 336.113 1020.92 336.274 1021.2 336.752L1025.86 344.755 1024.14 344.755 1028.8 336.752C1029.08 336.274 1029.69 336.113 1030.17 336.392 1030.65 336.67 1030.81 337.283 1030.53 337.76Z" fill="#172C51"/><text font-family="Yu Gothic,Yu Gothic_MSFontService,sans-serif" font-weight="400" font-size="14.6728" transform="matrix(1 0 0 1.00069 686.336 343)">･･･</text><text font-family="Yu Gothic,Yu Gothic_MSFontService,sans-serif" font-weight="400" font-size="14.6728" transform="matrix(6.12323e-17 1.00138 -0.999309 6.12747e-17 1107.22 253)">･･･</text><path d="M889.5 201.139 971.531 201.139 971.531 204.141 889.5 204.141ZM963.289 196.092 974.507 202.64 963.289 209.188C962.573 209.606 961.655 209.364 961.238 208.648 960.821 207.932 961.062 207.014 961.778 206.596L970.775 201.344 970.775 203.936 961.778 198.684C961.062 198.266 960.821 197.348 961.238 196.632 961.655 195.916 962.573 195.674 963.289 196.092Z" fill="#E212E5"/><path d="M891.5 327.227 973.531 327.227 973.531 330.228 891.5 330.228ZM965.289 322.179 976.507 328.727 965.289 335.276C964.573 335.693 963.655 335.451 963.238 334.736 962.821 334.02 963.062 333.101 963.778 332.683L972.775 327.431 972.775 330.023 963.778 324.771C963.062 324.354 962.821 323.435 963.238 322.719 963.655 322.003 964.573 321.761 965.289 322.179Z" fill="#E212E5"/><text fill="#E212E5" font-family="Yu Gothic,Yu Gothic_MSFontService,sans-serif" font-weight="700" font-size="14.6728" transform="matrix(1 0 0 1.00069 891.491 319)">ｴｰｼﾞｪﾝﾄ</text><text fill="#E212E5" font-family="Yu Gothic,Yu Gothic_MSFontService,sans-serif" font-weight="700" font-size="14.6728" transform="matrix(1 0 0 1.00069 942.811 319)">化</text><text fill="#E212E5" font-family="Yu Gothic,Yu Gothic_MSFontService,sans-serif" font-weight="700" font-size="14.6728" transform="matrix(1 0 0 1.00069 891.099 176)">外部知覚</text><text fill="#E212E5" font-family="Yu Gothic,Yu Gothic_MSFontService,sans-serif" font-weight="700" font-size="14.6728" transform="matrix(1 0 0 1.00069 891.099 193)">ツール無し</text><path d="M578 150.604 578 171.649 575 171.649 575 150.604ZM583.044 163.402 576.5 174.628 569.956 163.402C569.539 162.686 569.78 161.767 570.496 161.349 571.211 160.932 572.129 161.174 572.547 161.89L577.795 170.893 575.205 170.893 580.453 161.89C580.871 161.174 581.789 160.932 582.504 161.349 583.22 161.767 583.461 162.686 583.044 163.402Z" fill="#E212E5"/><text fill="#E212E5" font-family="Yu Gothic,Yu Gothic_MSFontService,sans-serif" font-weight="700" font-size="14.6728" transform="matrix(1 0 0 1.00069 593.594 169)">ﾋﾟｸｾﾙ</text><text fill="#E212E5" font-family="Yu Gothic,Yu Gothic_MSFontService,sans-serif" font-weight="700" font-size="14.6728" transform="matrix(1 0 0 1.00069 630.25 169)">で</text><text fill="#E212E5" font-family="Yu Gothic,Yu Gothic_MSFontService,sans-serif" font-weight="700" font-size="14.6728" transform="matrix(1 0 0 1.00069 644.913 169)">置換</text><text fill="#E212E5" font-family="Yu Gothic,Yu Gothic_MSFontService,sans-serif" font-weight="700" font-size="14.6728" transform="matrix(1 0 0 1.00069 674.238 169)">された</text><text fill="#E212E5" font-family="Yu Gothic,Yu Gothic_MSFontService,sans-serif" font-weight="700" font-size="14.6728" transform="matrix(1 0 0 1.00069 718.227 169)">ﾃｷｽﾄ</text><text fill="#E212E5" font-family="Yu Gothic,Yu Gothic_MSFontService,sans-serif" font-weight="700" font-size="14.6728" transform="matrix(1 0 0 1.00069 747.552 169)">：</text><text fill="#E212E5" font-family="Calibri,Calibri_MSFontService,sans-serif" font-weight="700" font-size="14.6728" transform="matrix(1 0 0 1.00069 762.215 169)">VLM</text><text fill="#E212E5" font-family="Yu Gothic,Yu Gothic_MSFontService,sans-serif" font-weight="700" font-size="14.6728" transform="matrix(1 0 0 1.00069 789.874 169)">が計画を担当</text><text font-family="Yu Gothic,Yu Gothic_MSFontService,sans-serif" font-weight="700" font-size="14.6728" transform="matrix(1 0 0 1.00069 419.466 57)">ﾂｰﾙ</text><text font-family="Yu Gothic,Yu Gothic_MSFontService,sans-serif" font-weight="700" font-size="14.6728" transform="matrix(1 0 0 1.00069 441.46 57)">で強化された</text><text font-family="Calibri,Calibri_MSFontService,sans-serif" font-weight="700" font-size="14.6728" transform="matrix(1 0 0 1.00069 529.436 57)">LLM</text><text font-family="Yu Gothic,Yu Gothic_MSFontService,sans-serif" font-weight="700" font-size="14.6728" transform="matrix(1 0 0 1.00069 419.466 171)">ﾂｰﾙ</text><text font-family="Yu Gothic,Yu Gothic_MSFontService,sans-serif" font-weight="700" font-size="14.6728" transform="matrix(1 0 0 1.00069 441.46 171)">で強化された</text><text font-family="Calibri,Calibri_MSFontService,sans-serif" font-weight="700" font-size="14.6728" transform="matrix(1 0 0 1.00069 529.436 171)">VLM</text><text font-family="Yu Gothic,Yu Gothic_MSFontService,sans-serif" font-weight="700" font-size="14.6728" transform="matrix(1 0 0 1.00069 419.466 284)">思考連鎖推論</text><text font-family="Calibri,Calibri_MSFontService,sans-serif" font-weight="700" font-size="14.6728" transform="matrix(1 0 0 1.00069 507.442 284)">VLM</text><path d="M786.154 310.048 791.485 310.048 791.485 311.382 786.154 311.382ZM795.484 310.048 797.5 310.048 796.833 310.715 796.833 307.396 798.166 307.396 798.166 311.382 795.484 311.382ZM796.833 303.395 796.833 298.059 798.166 298.059 798.166 303.395ZM796.854 295.371 791.522 295.371 791.522 294.037 796.854 294.037ZM787.523 295.371 782.191 295.371 782.191 294.037 787.523 294.037ZM778.192 295.371 772.86 295.371 772.86 294.037 778.192 294.037ZM768.862 295.371 763.53 295.371 763.53 294.037 768.862 294.037ZM759.531 295.371 754.199 295.371 754.199 294.037 759.531 294.037ZM750.2 295.371 744.868 295.371 744.868 294.037 750.2 294.037ZM740.869 295.371 735.537 295.371 735.537 294.037 740.869 294.037ZM731.538 295.371 726.206 295.371 726.206 294.037 731.538 294.037ZM722.208 295.371 716.876 295.371 716.876 294.037 722.208 294.037ZM712.877 295.371 707.545 295.371 707.545 294.037 712.877 294.037ZM703.546 295.371 698.214 295.371 698.214 294.037 703.546 294.037ZM694.215 295.371 688.883 295.371 688.883 294.037 694.215 294.037ZM684.884 295.371 679.552 295.371 679.552 294.037 684.884 294.037ZM675.554 295.371 670.222 295.371 670.222 294.037 675.554 294.037ZM666.223 295.371 660.891 295.371 660.891 294.037 666.223 294.037ZM656.892 295.371 651.56 295.371 651.56 294.037 656.892 294.037ZM647.561 295.371 642.229 295.371 642.229 294.037 647.561 294.037ZM638.23 295.371 632.898 295.371 632.898 294.037 638.23 294.037ZM628.9 295.371 623.568 295.371 623.568 294.037 628.9 294.037ZM619.569 295.371 614.237 295.371 614.237 294.037 619.569 294.037ZM610.238 295.371 604.906 295.371 604.906 294.037 610.238 294.037ZM600.907 295.371 595.575 295.371 595.575 294.037 600.907 294.037ZM591.576 295.371 586.245 295.371 586.245 294.037 591.576 294.037ZM582.246 295.371 576.914 295.371 576.914 294.037 582.246 294.037ZM572.915 295.371 567.583 295.371 567.583 294.037 572.915 294.037ZM563.584 295.371 558.252 295.371 558.252 294.037 563.584 294.037ZM554.253 295.371 548.921 295.371 548.921 294.037 554.253 294.037ZM544.922 295.371 539.59 295.371 539.59 294.037 544.922 294.037ZM535.592 295.371 530.26 295.371 530.26 294.037 535.592 294.037ZM526.261 295.371 520.929 295.371 520.929 294.037 526.261 294.037ZM516.93 295.371 511.598 295.371 511.598 294.037 516.93 294.037ZM509.166 295.605 509.166 300.941 507.833 300.941 507.833 295.605ZM509.166 304.942 509.166 310.278 507.833 310.278 507.833 304.942ZM509.166 314.28 509.166 314.718 508.5 314.051 513.394 314.051 513.394 315.384 507.833 315.384 507.833 314.28ZM517.393 314.051 522.531 314.051 522.531 315.384 517.393 315.384ZM514.869 309.473 523.854 314.718 514.869 319.962C514.551 320.148 514.143 320.04 513.958 319.722 513.772 319.404 513.88 318.996 514.198 318.81L522.196 314.141 522.196 315.294 514.198 310.625C513.88 310.439 513.772 310.031 513.958 309.713 514.143 309.395 514.551 309.287 514.869 309.473Z" fill="#172C51"/><path d="M1175.83 239.666 1175.83 97.8862 1177.17 97.8862 1177.17 239.666ZM1171.26 105.555 1176.5 96.5636 1181.74 105.555C1181.93 105.873 1181.82 106.281 1181.5 106.467 1181.18 106.652 1180.78 106.545 1180.59 106.227L1175.92 98.2233 1177.08 98.2233 1172.41 106.227C1172.22 106.545 1171.82 106.652 1171.5 106.467 1171.18 106.281 1171.07 105.873 1171.26 105.555Z" fill="#172C51"/><path d="M1176.5 239.666 1164.5 239.666" stroke="#172C51" stroke-width="1.33297" stroke-miterlimit="8" fill="none" fill-rule="evenodd"/><path d="M1176.5 214.648 1164.5 214.648" stroke="#172C51" stroke-width="1.33297" stroke-miterlimit="8" fill="none" fill-rule="evenodd"/><path d="M1176.5 190.632 1164.5 190.632" stroke="#172C51" stroke-width="1.33297" stroke-miterlimit="8" fill="none" fill-rule="evenodd"/><text font-family="Yu Gothic,Yu Gothic_MSFontService,sans-serif" font-weight="700" font-size="14.6728" transform="matrix(1 0 0 1.00069 155.27 55)">プロンプト強化型</text><text font-family="Calibri,Calibri_MSFontService,sans-serif" font-weight="700" font-size="14.6728" transform="matrix(1 0 0 1.00069 272.572 55)">LLM</text><text font-family="Yu Gothic,Yu Gothic_MSFontService,sans-serif" font-weight="700" font-size="14.6728" transform="matrix(1 0 0 1.00069 297.732 55)">中心</text><path d="M138.5 44.0945C138.5 41.0194 140.991 38.5266 144.064 38.5266L1204.94 38.5266C1208.01 38.5266 1210.5 41.0194 1210.5 44.0945L1210.5 379.198C1210.5 382.273 1208.01 384.766 1204.94 384.766L144.064 384.766C140.991 384.766 138.5 382.273 138.5 379.198Z" stroke="#000000" stroke-width="1.33297" stroke-miterlimit="8" stroke-dasharray="5.33189 3.99891" fill="none" fill-rule="evenodd"/><text font-family="Yu Gothic,Yu Gothic_MSFontService,sans-serif" font-weight="700" font-size="14.6728" transform="matrix(1 0 0 1.00069 154.92 30)">構成型</text><text font-family="Yu Gothic,Yu Gothic_MSFontService,sans-serif" font-weight="700" font-size="14.6728" transform="matrix(1 0 0 1.00069 21.5995 62)">モノリシック</text><text font-family="Calibri,Calibri_MSFontService,sans-serif" font-weight="700" font-size="14.6728" transform="matrix(1 0 0 1.00069 21.5995 79)">(</text><text font-family="Yu Gothic,Yu Gothic_MSFontService,sans-serif" font-weight="700" font-size="14.6728" transform="matrix(1 0 0 1.00069 26.0983 79)">一体型</text><text font-family="Calibri,Calibri_MSFontService,sans-serif" font-weight="700" font-size="14.6728" transform="matrix(1 0 0 1.00069 70.0863 79)">)</text><text font-family="Yu Gothic,Yu Gothic_MSFontService,sans-serif" font-weight="700" font-size="14.6728" transform="matrix(1 0 0 1.00069 1059.59 329)">統合された</text><text font-family="Calibri,Calibri_MSFontService,sans-serif" font-weight="700" font-size="14.6728" transform="matrix(1 0 0 1.00069 1132.9 329)">VLM</text><text font-family="Yu Gothic,Yu Gothic_MSFontService,sans-serif" font-weight="700" font-size="14.6728" transform="matrix(1 0 0 1.00069 979.233 56)">統合されたエージェント型</text><text font-family="Calibri,Calibri_MSFontService,sans-serif" font-weight="700" font-size="14.6728" transform="matrix(1 0 0 1.00069 1155.18 56)">VLM</text><path d="M638 106.073C638.503 102.298 640.562 97.0817 645.737 95.6366 650.911 94.1914 655.148 95.5183 659 99.2941" stroke="#000000" stroke-width="1.99946" stroke-miterlimit="8" fill="none" fill-rule="evenodd"/><path d="M0.999939 6.99999 0 0" stroke="#000000" stroke-width="1.33297" stroke-miterlimit="8" fill="none" fill-rule="evenodd" transform="matrix(-1 0 0 1.00069 660.5 93.5646)"/><path d="M0 0 5.99995 3.00003" stroke="#000000" stroke-width="1.33297" stroke-miterlimit="8" fill="none" fill-rule="evenodd" transform="matrix(-1 0 0 1.00069 660.5 99.5688)"/><path d="M662 106.073C661.498 109.849 659.438 115.065 654.263 116.51 649.089 117.955 644.852 116.628 641 112.853" stroke="#000000" stroke-width="1.99946" stroke-miterlimit="8" fill="none" fill-rule="evenodd"/><path d="M0.999939 6.99999 0 0" stroke="#000000" stroke-width="1.33297" stroke-miterlimit="8" fill="none" fill-rule="evenodd" transform="matrix(1 -1.22549e-16 -1.22465e-16 -1.00069 640.5 119.583)"/><path d="M0 0 5.99995 3.00003" stroke="#000000" stroke-width="1.33297" stroke-miterlimit="8" fill="none" fill-rule="evenodd" transform="matrix(1 -1.22549e-16 -1.22465e-16 -1.00069 640.5 113.578)"/><path d="M638 219.151C638.479 215.376 640.44 210.16 645.368 208.715 650.297 207.27 654.332 208.596 658 212.372" stroke="#000000" stroke-width="1.99946" stroke-miterlimit="8" fill="none" fill-rule="evenodd"/><path d="M0.999939 7.00009 0 0" stroke="#000000" stroke-width="1.33297" stroke-miterlimit="8" fill="none" fill-rule="evenodd" transform="matrix(-1 0 0 1.00069 660.5 206.643)"/><path d="M0 0 6.00005 3.00003" stroke="#000000" stroke-width="1.33297" stroke-miterlimit="8" fill="none" fill-rule="evenodd" transform="matrix(-1 0 0 1.00069 659.5 212.647)"/><path d="M661 219.151C660.498 222.927 658.438 228.143 653.263 229.588 648.089 231.033 643.852 229.707 640 225.931" stroke="#000000" stroke-width="1.99946" stroke-miterlimit="8" fill="none" fill-rule="evenodd"/><path d="M1.00004 6.99999 0 0" stroke="#000000" stroke-width="1.33297" stroke-miterlimit="8" fill="none" fill-rule="evenodd" transform="matrix(1 -1.22549e-16 -1.22465e-16 -1.00069 639.5 232.661)"/><path d="M0 0 5.99995 3.00003" stroke="#000000" stroke-width="1.33297" stroke-miterlimit="8" fill="none" fill-rule="evenodd" transform="matrix(1 -1.22549e-16 -1.22465e-16 -1.00069 639.5 226.657)"/><text font-family="Yu Gothic,Yu Gothic_MSFontService,sans-serif" font-weight="700" font-size="12.005" transform="matrix(1 0 0 1.00069 636.274 90)">ｱｸｼｮﾝ</text><text font-family="Yu Gothic,Yu Gothic_MSFontService,sans-serif" font-weight="700" font-size="10.6711" transform="matrix(1 0 0 1.00069 625.166 134)">ﾌｫｰﾄﾞﾊﾞｯｸ</text><text font-family="Yu Gothic,Yu Gothic_MSFontService,sans-serif" font-weight="700" font-size="12.005" transform="matrix(1 0 0 1.00069 635.741 203)">ｱｸｼｮﾝ</text><text font-family="Yu Gothic,Yu Gothic_MSFontService,sans-serif" font-weight="700" font-size="10.6711" transform="matrix(1 0 0 1.00069 626.022 250)">ﾌｫｰﾄﾞﾊﾞｯｸ</text><text font-family="Calibri,Calibri_MSFontService,sans-serif" font-weight="700" font-size="10.6711" transform="matrix(1 0 0 1.00069 624.831 263)">(</text><text font-family="Yu Gothic,Yu Gothic_MSFontService,sans-serif" font-weight="700" font-size="10.6711" transform="matrix(1 0 0 1.00069 628.164 263)">ﾃｷｽﾄ</text><text font-family="Calibri,Calibri_MSFontService,sans-serif" font-weight="700" font-size="10.6711" transform="matrix(1 0 0 1.00069 649.491 263)">/</text><text font-family="Yu Gothic,Yu Gothic_MSFontService,sans-serif" font-weight="700" font-size="10.6711" transform="matrix(1 0 0 1.00069 654.157 263)">視覚</text><text font-family="Calibri,Calibri_MSFontService,sans-serif" font-weight="700" font-size="10.6711" transform="matrix(1 0 0 1.00069 675.484 263)">)</text><text font-family="Calibri,Calibri_MSFontService,sans-serif" font-weight="700" font-size="10.6711" transform="matrix(1 0 0 1.00069 638.161 147)">(</text><text font-family="Yu Gothic,Yu Gothic_MSFontService,sans-serif" font-weight="700" font-size="10.6711" transform="matrix(1 0 0 1.00069 641.494 147)">ﾃｷｽﾄ</text><text font-family="Calibri,Calibri_MSFontService,sans-serif" font-weight="700" font-size="10.6711" transform="matrix(1 0 0 1.00069 662.821 147)">)</text><text font-family="Yu Gothic,Yu Gothic_MSFontService,sans-serif" font-weight="700" font-size="14.6728" transform="matrix(1 0 0 1.00069 1057.04 174)">思考</text><text font-family="Calibri,Calibri_MSFontService,sans-serif" font-weight="700" font-size="14.6728" transform="matrix(1 0 0 1.00069 1086.36 174)">/</text><text font-family="Yu Gothic,Yu Gothic_MSFontService,sans-serif" font-weight="700" font-size="14.6728" transform="matrix(1 0 0 1.00069 1092.7 174)">視覚的証拠</text><text font-family="Yu Gothic,Yu Gothic_MSFontService,sans-serif" font-weight="700" font-size="14.6728" transform="matrix(1 0 0 1.00069 1126.6 119)">入力に</text><text font-family="Yu Gothic,Yu Gothic_MSFontService,sans-serif" font-weight="700" font-size="14.6728" transform="matrix(1 0 0 1.00069 1141.26 136)">追加</text></g></svg>